<svg width="1102" height="591" viewBox="0 0 1102 591" style="fill:none;stroke:none;fill-rule:evenodd;clip-rule:evenodd;stroke-linecap:round;stroke-linejoin:round;stroke-miterlimit:1.5;" version="1.1" xmlns="http://www.w3.org/2000/svg" xmlns:xlink="http://www.w3.org/1999/xlink"><style id="fontImports">@import url("https://fonts.googleapis.com/css2?family=Roboto:wght@400;700&amp;display=block");</style><g id="items" style="isolation: isolate"><g id="blend" style="mix-blend-mode: normal"><g id="g-root-tx_definiti_qs5dzg1grf2mf-fill" data-item-order="0" transform="translate(15, 223)"><g id="tx_definiti_qs5dzg1grf2mf-fill" stroke="none" fill="#f4f4f4"><g><text style="font: 20px Roboto, sans-serif; white-space: pre;" font-size="20px" font-family="Roboto, sans-serif"><tspan x="16.84" y="34" dominant-baseline="ideographic">Definition: </tspan><tspan x="23.09" y="58" dominant-baseline="ideographic">Hydroxyl </tspan><tspan x="22.11" y="82" dominant-baseline="ideographic">group on </tspan><tspan x="19.31" y="106" dominant-baseline="ideographic">saturated </tspan><tspan x="30.64" y="130" dominant-baseline="ideographic">carbon</tspan></text></g></g></g><g id="g-root-tx_reactivi_4ospvw1grf30r-fill" data-item-order="0" transform="translate(715, 223)"><g id="tx_reactivi_4ospvw1grf30r-fill" stroke="none" fill="#f4f4f4"><g><text style="font: 20px Roboto, sans-serif; white-space: pre;" font-size="20px" font-family="Roboto, sans-serif"><tspan x="22.01" y="34" dominant-baseline="ideographic">Reactivity: </tspan><tspan x="15.62" y="58" dominant-baseline="ideographic">More acidic </tspan><tspan x="47.79" y="82" dominant-baseline="ideographic">than </tspan><tspan x="29.91" y="106" dominant-baseline="ideographic">alcohols</tspan></text></g></g></g><g id="g-root-tx_examplee_1ur5e6k1grf37l-fill" data-item-order="0" transform="translate(155, 223)"><g id="tx_examplee_1ur5e6k1grf37l-fill" stroke="none" fill="#f4f4f4"><g><text style="font: 20px Roboto, sans-serif; white-space: pre;" font-size="20px" font-family="Roboto, sans-serif"><tspan x="29.39" y="34" dominant-baseline="ideographic">Example: </tspan><tspan x="36.45" y="58" dominant-baseline="ideographic">Ethanol </tspan><tspan x="15.83" y="82" dominant-baseline="ideographic">(CH₃CH₂OH)</tspan></text></g></g></g><g id="g-root-tx_phenols_dikavg1grf37p-fill" data-item-order="0" transform="translate(593, 131)"><g id="tx_phenols_dikavg1grf37p-fill" stroke="none" fill="#f4f4f4"><g><text style="font: 20px Roboto, sans-serif; white-space: pre;" font-size="20px" font-family="Roboto, sans-serif"><tspan x="16.08" y="34" dominant-baseline="ideographic">Phenols</tspan></text></g></g></g><g id="g-root-tx_alcohols_1hefxn01grf2md-fill" data-item-order="0" transform="translate(173, 131)"><g id="tx_alcohols_1hefxn01grf2md-fill" stroke="none" fill="#f4f4f4"><g><text style="font: 20px Roboto, sans-serif; white-space: pre;" font-size="20px" font-family="Roboto, sans-serif"><tspan x="13.31" y="34" dominant-baseline="ideographic">Alcohols</tspan></text></g></g></g><g id="g-root-tx_reactivi_144uuj01grf37n-fill" data-item-order="0" transform="translate(307, 223)"><g id="tx_reactivi_144uuj01grf37n-fill" stroke="none" fill="#f4f4f4"><g><text style="font: 20px Roboto, sans-serif; white-space: pre;" font-size="20px" font-family="Roboto, sans-serif"><tspan x="16.01" y="34" dominant-baseline="ideographic">Reactivity: </tspan><tspan x="14.57" y="58" dominant-baseline="ideographic">Can act as </tspan><tspan x="26.05" y="82" dominant-baseline="ideographic">acids or </tspan><tspan x="34.85" y="106" dominant-baseline="ideographic">bases</tspan></text></g></g></g><g id="g-root-tx_definiti_141qh3g1grgg7a-fill" data-item-order="0" transform="translate(679, 411.00006103515625)"><g id="tx_definiti_141qh3g1grgg7a-fill" stroke="none" fill="#f4f4f4"><g><text style="font: 20px Roboto, sans-serif; white-space: pre;" font-size="20px" font-family="Roboto, sans-serif"><tspan x="19.31" y="34" dominant-baseline="ideographic">Definition: </tspan><tspan x="31.06" y="58" dominant-baseline="ideographic">Oxygen </tspan><tspan x="19.23" y="82" dominant-baseline="ideographic">bonded to </tspan><tspan x="14.16" y="106" dominant-baseline="ideographic">two groups</tspan></text></g></g></g><g id="g-root-tx_definiti_1qd7bbg1grf28f-fill" data-item-order="0" transform="translate(447, 223)"><g id="tx_definiti_1qd7bbg1grf28f-fill" stroke="none" fill="#f4f4f4"><g><text style="font: 20px Roboto, sans-serif; white-space: pre;" font-size="20px" font-family="Roboto, sans-serif"><tspan x="16.84" y="34" dominant-baseline="ideographic">Definition: </tspan><tspan x="23.09" y="58" dominant-baseline="ideographic">Hydroxyl </tspan><tspan x="22.11" y="82" dominant-baseline="ideographic">group on </tspan><tspan x="21.97" y="106" dominant-baseline="ideographic">aromatic </tspan><tspan x="44.58" y="130" dominant-baseline="ideographic">ring</tspan></text></g></g></g><g id="g-root-tx_ethers_1lz98gc1grf211-fill" data-item-order="0" transform="translate(837, 131)"><g id="tx_ethers_1lz98gc1grf211-fill" stroke="none" fill="#f4f4f4"><g><text style="font: 20px Roboto, sans-serif; white-space: pre;" font-size="20px" font-family="Roboto, sans-serif"><tspan x="17.7" y="34" dominant-baseline="ideographic">Ethers</tspan></text></g></g></g><g id="g-root-tx_reactivi_94m80c1grgh6t-fill" data-item-order="0" transform="translate(959, 411.00006103515625)"><g id="tx_reactivi_94m80c1grgh6t-fill" stroke="none" fill="#f4f4f4"><g><text style="font: 20px Roboto, sans-serif; white-space: pre;" font-size="20px" font-family="Roboto, sans-serif"><tspan x="16.29" y="34" dominant-baseline="ideographic">Reactivity: </tspan><tspan x="19.54" y="58" dominant-baseline="ideographic">Relatively </tspan><tspan x="15.73" y="82" dominant-baseline="ideographic">unreactive</tspan></text></g></g></g><g id="g-root-tx_examplep_vb39jg1grf30p-fill" data-item-order="0" transform="translate(587, 223)"><g id="tx_examplep_vb39jg1grf30p-fill" stroke="none" fill="#f4f4f4"><g><text style="font: 20px Roboto, sans-serif; white-space: pre;" font-size="20px" font-family="Roboto, sans-serif"><tspan x="14.92" y="34" dominant-baseline="ideographic">Example: </tspan><tspan x="24.77" y="58" dominant-baseline="ideographic">Phenol </tspan><tspan x="14.98" y="82" dominant-baseline="ideographic">(C₆H₅OH)</tspan></text></g></g></g><g id="g-root-tx_exampled_4locgc1grgg07-fill" data-item-order="0" transform="translate(819, 411.00006103515625)"><g id="tx_exampled_4locgc1grgg07-fill" stroke="none" fill="#f4f4f4"><g><text style="font: 20px Roboto, sans-serif; white-space: pre;" font-size="20px" font-family="Roboto, sans-serif"><tspan x="23.39" y="34" dominant-baseline="ideographic">Example: </tspan><tspan x="25.02" y="58" dominant-baseline="ideographic">Dimethyl </tspan><tspan x="41.23" y="82" dominant-baseline="ideographic">ether </tspan><tspan x="16.95" y="106" dominant-baseline="ideographic">(CH₃OCH₃)</tspan></text></g></g></g><g id="g-root-cu_m8l1cc1grjbwq-fill" data-item-order="2" transform="translate(635, 51.00006103515625)"></g><g id="g-root-cu_zk1jpo1grjabn-fill" data-item-order="2" transform="translate(501, 161)"></g><g id="g-root-cu_hte0b01grj9jd-fill" data-item-order="2" transform="translate(873, 161)"></g><g id="g-root-cu_qoejgs1grjb4e-fill" data-item-order="2" transform="translate(635, 161)"></g><g id="g-root-cu_v481l81grjb40-fill" data-item-order="2" transform="translate(635, 161)"></g><g id="g-root-cu_m8l1cc1grjbws-fill" data-item-order="2" transform="translate(733, 161)"></g><g id="g-root-cu_13zv1u41grj9jb-fill" data-item-order="2" transform="translate(215, 161)"></g><g id="g-root-cu_18f22vg1grjbwq-fill" data-item-order="2" transform="translate(69, 161)"></g><g id="g-root-cu_hte0b01grj9jb-fill" data-item-order="2" transform="translate(873, 161)"></g><g id="g-root-cu_13zv1u41grj9j9-fill" data-item-order="2" transform="translate(215, 161)"></g><g id="g-root-cu_1cuvkzw1grjb4f-fill" data-item-order="2" transform="translate(215, 51.00006103515625)"></g><g id="g-root-cu_zk1jpo1grjabl-fill" data-item-order="1000000002" transform="translate(635, 94.44287109375)"></g><g id="g-root-tx_definiti_qs5dzg1grf2mf-stroke" data-item-order="0" transform="translate(15, 223)"></g><g id="g-root-tx_reactivi_4ospvw1grf30r-stroke" data-item-order="0" transform="translate(715, 223)"></g><g id="g-root-tx_examplee_1ur5e6k1grf37l-stroke" data-item-order="0" transform="translate(155, 223)"></g><g id="g-root-tx_phenols_dikavg1grf37p-stroke" data-item-order="0" transform="translate(593, 131)"></g><g id="g-root-tx_alcohols_1hefxn01grf2md-stroke" data-item-order="0" transform="translate(173, 131)"></g><g id="g-root-tx_reactivi_144uuj01grf37n-stroke" data-item-order="0" transform="translate(307, 223)"></g><g id="g-root-tx_definiti_141qh3g1grgg7a-stroke" data-item-order="0" transform="translate(679, 411.00006103515625)"></g><g id="g-root-tx_definiti_1qd7bbg1grf28f-stroke" data-item-order="0" transform="translate(447, 223)"></g><g id="g-root-tx_ethers_1lz98gc1grf211-stroke" data-item-order="0" transform="translate(837, 131)"></g><g id="g-root-tx_reactivi_94m80c1grgh6t-stroke" data-item-order="0" transform="translate(959, 411.00006103515625)"></g><g id="g-root-tx_examplep_vb39jg1grf30p-stroke" data-item-order="0" transform="translate(587, 223)"></g><g id="g-root-tx_exampled_4locgc1grgg07-stroke" data-item-order="0" transform="translate(819, 411.00006103515625)"></g><g id="g-root-cu_m8l1cc1grjbwq-stroke" data-item-order="2" transform="translate(635, 51.00006103515625)"><g id="cu_m8l1cc1grjbwq-stroke" fill="none" stroke-linecap="round" stroke-linejoin="round" stroke-miterlimit="4" stroke="#f4f4f4" stroke-width="2"><g><path d="M 10 10L 10 28.5L 10 47L 129 47L 248 47L 248 65.5L 248 82"></path><path d="M 241.5 76L 248 82.5L 254.5 76" stroke-dasharray="none"></path></g></g></g><g id="g-root-cu_zk1jpo1grjabn-stroke" data-item-order="2" transform="translate(501, 161)"><g id="cu_zk1jpo1grjabn-stroke" fill="none" stroke-linecap="round" stroke-linejoin="round" stroke-miterlimit="4" stroke="#f4f4f4" stroke-width="2"><g><path d="M 144 10L 144 24L 144 38L 77 38L 10 38L 10 52L 10 64"></path><path d="M 3.5 58L 10 64.5L 16.5 58" stroke-dasharray="none"></path></g></g></g><g id="g-root-cu_hte0b01grj9jd-stroke" data-item-order="2" transform="translate(873, 161)"><g id="cu_hte0b01grj9jd-stroke" fill="none" stroke-linecap="round" stroke-linejoin="round" stroke-miterlimit="4" stroke="#f4f4f4" stroke-width="2"><g><path d="M 10 10L 10 118L 10 226L 80 226L 150 226L 150 240L 150 252"></path><path d="M 143.5 246L 150 252.5L 156.5 246" stroke-dasharray="none"></path></g></g></g><g id="g-root-cu_qoejgs1grjb4e-stroke" data-item-order="2" transform="translate(635, 161)"><g id="cu_qoejgs1grjb4e-stroke" fill="none" stroke-linecap="round" stroke-linejoin="round" stroke-miterlimit="4" stroke="#f4f4f4" stroke-width="2"><g><path d="M 10 10L 10 38L 10 64"></path><path d="M 3.5 58L 10 64.5L 16.5 58" stroke-dasharray="none"></path></g></g></g><g id="g-root-cu_v481l81grjb40-stroke" data-item-order="2" transform="translate(635, 161)"><g id="cu_v481l81grjb40-stroke" fill="none" stroke-linecap="round" stroke-linejoin="round" stroke-miterlimit="4" stroke="#f4f4f4" stroke-width="2"><g><path d="M 10 10L 10 24L 10 38L 80 38L 150 38L 150 52L 150 64"></path><path d="M 143.5 58L 150 64.5L 156.5 58" stroke-dasharray="none"></path></g></g></g><g id="g-root-cu_m8l1cc1grjbws-stroke" data-item-order="2" transform="translate(733, 161)"><g id="cu_m8l1cc1grjbws-stroke" fill="none" stroke-linecap="round" stroke-linejoin="round" stroke-miterlimit="4" stroke="#f4f4f4" stroke-width="2"><g><path d="M 150 10L 150 118L 150 226L 80 226L 10 226L 10 240L 10 252"></path><path d="M 3.5 246L 10 252.5L 16.5 246" stroke-dasharray="none"></path></g></g></g><g id="g-root-cu_13zv1u41grj9jb-stroke" data-item-order="2" transform="translate(215, 161)"><g id="cu_13zv1u41grj9jb-stroke" fill="none" stroke-linecap="round" stroke-linejoin="round" stroke-miterlimit="4" stroke="#f4f4f4" stroke-width="2"><g><path d="M 10 10L 10 24L 10 38L 83 38L 156 38L 156 52L 156 64"></path><path d="M 149.5 58L 156 64.5L 162.5 58" stroke-dasharray="none"></path></g></g></g><g id="g-root-cu_18f22vg1grjbwq-stroke" data-item-order="2" transform="translate(69, 161)"><g id="cu_18f22vg1grjbwq-stroke" fill="none" stroke-linecap="round" stroke-linejoin="round" stroke-miterlimit="4" stroke="#f4f4f4" stroke-width="2"><g><path d="M 156 10L 156 24L 156 38L 83 38L 10 38L 10 52L 10 64"></path><path d="M 3.5 58L 10 64.5L 16.5 58" stroke-dasharray="none"></path></g></g></g><g id="g-root-cu_hte0b01grj9jb-stroke" data-item-order="2" transform="translate(873, 161)"><g id="cu_hte0b01grj9jb-stroke" fill="none" stroke-linecap="round" stroke-linejoin="round" stroke-miterlimit="4" stroke="#f4f4f4" stroke-width="2"><g><path d="M 10 10L 10 132L 10 252"></path><path d="M 3.5 246L 10 252.5L 16.5 246" stroke-dasharray="none"></path></g></g></g><g id="g-root-cu_13zv1u41grj9j9-stroke" data-item-order="2" transform="translate(215, 161)"><g id="cu_13zv1u41grj9j9-stroke" fill="none" stroke-linecap="round" stroke-linejoin="round" stroke-miterlimit="4" stroke="#f4f4f4" stroke-width="2"><g><path d="M 10 10L 10 38L 10 64"></path><path d="M 3.5 58L 10 64.5L 16.5 58" stroke-dasharray="none"></path></g></g></g><g id="g-root-cu_1cuvkzw1grjb4f-stroke" data-item-order="2" transform="translate(215, 51.00006103515625)"><g id="cu_1cuvkzw1grjb4f-stroke" fill="none" stroke-linecap="round" stroke-linejoin="round" stroke-miterlimit="4" stroke="#f4f4f4" stroke-width="2"><g><path d="M 430 10L 430 28.5L 430 47L 220 47L 10 47L 10 65.5L 10 82"></path><path d="M 3.5 76L 10 82.5L 16.5 76" stroke-dasharray="none"></path></g></g></g><g id="g-root-cu_zk1jpo1grjabl-stroke" data-item-order="1000000002" transform="translate(635, 94.44287109375)"><g id="cu_zk1jpo1grjabl-stroke" fill="none" stroke-linecap="round" stroke-linejoin="round" stroke-miterlimit="4" stroke="#f4f4f4" stroke-width="2"><g><path d="M 10 10L 10 25.3L 10 38.6"></path><path d="M 3.5 32.6L 10 39.1L 16.5 32.6" stroke-dasharray="none"></path></g></g></g></g></g></svg>
