<svg width="980" height="426" viewBox="0 0 980 426" style="fill:none;stroke:none;fill-rule:evenodd;clip-rule:evenodd;stroke-linecap:round;stroke-linejoin:round;stroke-miterlimit:1.5;" version="1.1" xmlns="http://www.w3.org/2000/svg" xmlns:xlink="http://www.w3.org/1999/xlink"><style id="fontImports">@import url("https://fonts.googleapis.com/css2?family=Roboto:wght@400;700&amp;display=block");</style><g id="items" style="isolation: isolate"><g id="blend" style="mix-blend-mode: normal"><g id="g-root-tx_aldehyde_3e3301et82dc-fill" data-item-order="0" transform="translate(219, 39)"><g id="tx_aldehyde_3e3301et82dc-fill" stroke="none" fill="#f4f4f4"><g><text style="font: 20px Roboto, sans-serif; white-space: pre;" font-size="20px" font-family="Roboto, sans-serif"><tspan x="11.84" y="34" dominant-baseline="ideographic">Aldehydes</tspan></text></g></g></g><g id="g-root-tx_ketones_1qbzi8s1et845d-fill" data-item-order="0" transform="translate(703, 39)"><g id="tx_ketones_1qbzi8s1et845d-fill" stroke="none" fill="#f4f4f4"><g><text style="font: 20px Roboto, sans-serif; white-space: pre;" font-size="20px" font-family="Roboto, sans-serif"><tspan x="15.71" y="34" dominant-baseline="ideographic">Ketones</tspan></text></g></g></g><g id="g-root-tx_undergon_zrkduk1et835t-fill" data-item-order="0" transform="translate(825, 295)"><g id="tx_undergon_zrkduk1et835t-fill" stroke="none" fill="#f4f4f4"><g><text style="font: 20px Roboto, sans-serif; white-space: pre;" font-size="20px" font-family="Roboto, sans-serif"><tspan x="30.12" y="34" dominant-baseline="ideographic">Undergo </tspan><tspan x="14.34" y="58" dominant-baseline="ideographic">nucleophilic </tspan><tspan x="31.6" y="82" dominant-baseline="ideographic">addition</tspan></text></g></g></g><g id="g-root-tx_oxidized_925grg1et81zb-fill" data-item-order="0" transform="translate(411, 295)"><g id="tx_oxidized_925grg1et81zb-fill" stroke="none" fill="#f4f4f4"><g><text style="font: 20px Roboto, sans-serif; white-space: pre;" font-size="20px" font-family="Roboto, sans-serif"><tspan x="12.03" y="34" dominant-baseline="ideographic">Oxidized to </tspan><tspan x="16.48" y="58" dominant-baseline="ideographic">carboxylic </tspan><tspan x="37.63" y="82" dominant-baseline="ideographic">acids</tspan></text></g></g></g><g id="g-root-tx_definiti_zmkl5o1et82yx-fill" data-item-order="0" transform="translate(15, 131)"><g id="tx_definiti_zmkl5o1et82yx-fill" stroke="none" fill="#f4f4f4"><g><text style="font: 20px Roboto, sans-serif; white-space: pre;" font-size="20px" font-family="Roboto, sans-serif"><tspan x="16.84" y="34" dominant-baseline="ideographic">Definition: </tspan><tspan x="21.45" y="58" dominant-baseline="ideographic">C=O with </tspan><tspan x="20.3" y="82" dominant-baseline="ideographic">hydrogen</tspan></text></g></g></g><g id="g-root-tx_exampleh_hvx1r01et826a-fill" data-item-order="0" transform="translate(155, 131)"><g id="tx_exampleh_hvx1r01et826a-fill" stroke="none" fill="#f4f4f4"><g><text style="font: 20px Roboto, sans-serif; white-space: pre;" font-size="20px" font-family="Roboto, sans-serif"><tspan x="14.92" y="34" dominant-baseline="ideographic">Example: </tspan><tspan x="27.88" y="58" dominant-baseline="ideographic">HCHO</tspan></text></g></g></g><g id="g-root-tx_examplec_1upxl3w1et84cr-fill" data-item-order="0" transform="translate(283, 131)"><g id="tx_examplec_1upxl3w1et84cr-fill" stroke="none" fill="#f4f4f4"><g><text style="font: 20px Roboto, sans-serif; white-space: pre;" font-size="20px" font-family="Roboto, sans-serif"><tspan x="14.92" y="34" dominant-baseline="ideographic">Example: </tspan><tspan x="18.38" y="58" dominant-baseline="ideographic">CH₃CHO</tspan></text></g></g></g><g id="g-root-tx_reactivi_1ly1fdo1et8367-fill" data-item-order="0" transform="translate(831, 131)"><g id="tx_reactivi_1ly1fdo1et8367-fill" stroke="none" fill="#f4f4f4"><g><text style="font: 20px Roboto, sans-serif; white-space: pre;" font-size="20px" font-family="Roboto, sans-serif"><tspan x="16.01" y="34" dominant-baseline="ideographic">Reactivity: </tspan><tspan x="40.52" y="58" dominant-baseline="ideographic">Less </tspan><tspan x="24.65" y="82" dominant-baseline="ideographic">oxidized</tspan></text></g></g></g><g id="g-root-tx_reactivi_qst0641et82rx-fill" data-item-order="0" transform="translate(411, 131)"><g id="tx_reactivi_qst0641et82rx-fill" stroke="none" fill="#f4f4f4"><g><text style="font: 20px Roboto, sans-serif; white-space: pre;" font-size="20px" font-family="Roboto, sans-serif"><tspan x="16.01" y="34" dominant-baseline="ideographic">Reactivity: </tspan><tspan x="33.68" y="58" dominant-baseline="ideographic">Highly </tspan><tspan x="26.48" y="82" dominant-baseline="ideographic">reactive</tspan></text></g></g></g><g id="g-root-tx_examplec_dj7x241et83d9-fill" data-item-order="0" transform="translate(691, 131)"><g id="tx_examplec_dj7x241et83d9-fill" stroke="none" fill="#f4f4f4"><g><text style="font: 20px Roboto, sans-serif; white-space: pre;" font-size="20px" font-family="Roboto, sans-serif"><tspan x="23.39" y="34" dominant-baseline="ideographic">Example: </tspan><tspan x="17.34" y="58" dominant-baseline="ideographic">CH₃COCH₃</tspan></text></g></g></g><g id="g-root-tx_definiti_zpoyl81et845f-fill" data-item-order="0" transform="translate(551, 131)"><g id="tx_definiti_zpoyl81et845f-fill" stroke="none" fill="#f4f4f4"><g><text style="font: 20px Roboto, sans-serif; white-space: pre;" font-size="20px" font-family="Roboto, sans-serif"><tspan x="16.84" y="34" dominant-baseline="ideographic">Definition: </tspan><tspan x="21.45" y="58" dominant-baseline="ideographic">C=O with </tspan><tspan x="21.23" y="82" dominant-baseline="ideographic">alkyl/aryl </tspan><tspan x="30.64" y="106" dominant-baseline="ideographic">groups</tspan></text></g></g></g><g id="g-root-cu_146revw1et9ix9-fill" data-item-order="2" transform="translate(69, 69)"></g><g id="g-root-cu_zrkduk1et9gjs-fill" data-item-order="2" transform="translate(203, 69)"></g><g id="g-root-cu_vbqvq41et9hc2-fill" data-item-order="2" transform="translate(267, 69)"></g><g id="g-root-cu_vbqvq41et9hc4-fill" data-item-order="2" transform="translate(267, 69)"></g><g id="g-root-cu_qvxdlo1et9i4h-fill" data-item-order="2" transform="translate(605, 69)"></g><g id="g-root-cu_i0adcs1et9ix8-fill" data-item-order="2" transform="translate(745, 69)"></g><g id="g-root-cu_i0adcs1et9ixa-fill" data-item-order="2" transform="translate(745, 69)"></g><g id="g-root-cu_mg3vh81et9iww-fill" data-item-order="2" transform="translate(885, 233)"></g><g id="g-root-cu_vbqvq41et9hc6-fill" data-item-order="2" transform="translate(465, 233)"></g><g id="g-root-tx_aldehyde_3e3301et82dc-stroke" data-item-order="0" transform="translate(219, 39)"></g><g id="g-root-tx_ketones_1qbzi8s1et845d-stroke" data-item-order="0" transform="translate(703, 39)"></g><g id="g-root-tx_undergon_zrkduk1et835t-stroke" data-item-order="0" transform="translate(825, 295)"></g><g id="g-root-tx_oxidized_925grg1et81zb-stroke" data-item-order="0" transform="translate(411, 295)"></g><g id="g-root-tx_definiti_zmkl5o1et82yx-stroke" data-item-order="0" transform="translate(15, 131)"></g><g id="g-root-tx_exampleh_hvx1r01et826a-stroke" data-item-order="0" transform="translate(155, 131)"></g><g id="g-root-tx_examplec_1upxl3w1et84cr-stroke" data-item-order="0" transform="translate(283, 131)"></g><g id="g-root-tx_reactivi_1ly1fdo1et8367-stroke" data-item-order="0" transform="translate(831, 131)"></g><g id="g-root-tx_reactivi_qst0641et82rx-stroke" data-item-order="0" transform="translate(411, 131)"></g><g id="g-root-tx_examplec_dj7x241et83d9-stroke" data-item-order="0" transform="translate(691, 131)"></g><g id="g-root-tx_definiti_zpoyl81et845f-stroke" data-item-order="0" transform="translate(551, 131)"></g><g id="g-root-cu_146revw1et9ix9-stroke" data-item-order="2" transform="translate(69, 69)"><g id="cu_146revw1et9ix9-stroke" fill="none" stroke-linecap="round" stroke-linejoin="round" stroke-miterlimit="4" stroke="#f4f4f4" stroke-width="2"><g><path d="M 208 10L 208 24L 208 38L 109 38L 10 38L 10 52L 10 64"></path><path d="M 3.5 58L 10 64.5L 16.5 58" stroke-dasharray="none"></path></g></g></g><g id="g-root-cu_zrkduk1et9gjs-stroke" data-item-order="2" transform="translate(203, 69)"><g id="cu_zrkduk1et9gjs-stroke" fill="none" stroke-linecap="round" stroke-linejoin="round" stroke-miterlimit="4" stroke="#f4f4f4" stroke-width="2"><g><path d="M 74 10L 74 24L 74 38L 42 38L 10 38L 10 52L 10 64"></path><path d="M 3.5 58L 10 64.5L 16.5 58" stroke-dasharray="none"></path></g></g></g><g id="g-root-cu_vbqvq41et9hc2-stroke" data-item-order="2" transform="translate(267, 69)"><g id="cu_vbqvq41et9hc2-stroke" fill="none" stroke-linecap="round" stroke-linejoin="round" stroke-miterlimit="4" stroke="#f4f4f4" stroke-width="2"><g><path d="M 10 10L 10 24L 10 38L 42 38L 74 38L 74 52L 74 64"></path><path d="M 67.5 58L 74 64.5L 80.5 58" stroke-dasharray="none"></path></g></g></g><g id="g-root-cu_vbqvq41et9hc4-stroke" data-item-order="2" transform="translate(267, 69)"><g id="cu_vbqvq41et9hc4-stroke" fill="none" stroke-linecap="round" stroke-linejoin="round" stroke-miterlimit="4" stroke="#f4f4f4" stroke-width="2"><g><path d="M 10 10L 10 24L 10 38L 109 38L 208 38L 208 52L 208 64"></path><path d="M 201.5 58L 208 64.5L 214.5 58" stroke-dasharray="none"></path></g></g></g><g id="g-root-cu_qvxdlo1et9i4h-stroke" data-item-order="2" transform="translate(605, 69)"><g id="cu_qvxdlo1et9i4h-stroke" fill="none" stroke-linecap="round" stroke-linejoin="round" stroke-miterlimit="4" stroke="#f4f4f4" stroke-width="2"><g><path d="M 150 10L 150 24L 150 38L 80 38L 10 38L 10 52L 10 64"></path><path d="M 3.5 58L 10 64.5L 16.5 58" stroke-dasharray="none"></path></g></g></g><g id="g-root-cu_i0adcs1et9ix8-stroke" data-item-order="2" transform="translate(745, 69)"><g id="cu_i0adcs1et9ix8-stroke" fill="none" stroke-linecap="round" stroke-linejoin="round" stroke-miterlimit="4" stroke="#f4f4f4" stroke-width="2"><g><path d="M 10 10L 10 38L 10 64"></path><path d="M 3.5 58L 10 64.5L 16.5 58" stroke-dasharray="none"></path></g></g></g><g id="g-root-cu_i0adcs1et9ixa-stroke" data-item-order="2" transform="translate(745, 69)"><g id="cu_i0adcs1et9ixa-stroke" fill="none" stroke-linecap="round" stroke-linejoin="round" stroke-miterlimit="4" stroke="#f4f4f4" stroke-width="2"><g><path d="M 10 10L 10 24L 10 38L 80 38L 150 38L 150 52L 150 64"></path><path d="M 143.5 58L 150 64.5L 156.5 58" stroke-dasharray="none"></path></g></g></g><g id="g-root-cu_mg3vh81et9iww-stroke" data-item-order="2" transform="translate(885, 233)"><g id="cu_mg3vh81et9iww-stroke" fill="none" stroke-linecap="round" stroke-linejoin="round" stroke-miterlimit="4" stroke="#f4f4f4" stroke-width="2"><g><path d="M 10 10L 10 38L 10 64"></path><path d="M 3.5 58L 10 64.5L 16.5 58" stroke-dasharray="none"></path></g></g></g><g id="g-root-cu_vbqvq41et9hc6-stroke" data-item-order="2" transform="translate(465, 233)"><g id="cu_vbqvq41et9hc6-stroke" fill="none" stroke-linecap="round" stroke-linejoin="round" stroke-miterlimit="4" stroke="#f4f4f4" stroke-width="2"><g><path d="M 10 10L 10 38L 10 64"></path><path d="M 3.5 58L 10 64.5L 16.5 58" stroke-dasharray="none"></path></g></g></g></g></g></svg>
