<?xml version="1.0" encoding="utf-8" standalone="yes"?>
<!DOCTYPE svg PUBLIC "-//W3C//DTD SVG 1.1//EN" "http://www.w3.org/Graphics/SVG/1.1/DTD/svg11.dtd">
<svg width="686" height="824" viewBox="0 0 686 824" style="fill:none;stroke:none;fill-rule:evenodd;clip-rule:evenodd;stroke-linecap:round;stroke-linejoin:round;stroke-miterlimit:1.5;" version="1.1" xmlns="http://www.w3.org/2000/svg" xmlns:xlink="http://www.w3.org/1999/xlink"><style id="fontImports">@import url("https://fonts.googleapis.com/css2?family=Roboto:wght@400;700&amp;display=block");</style><g id="items" style="isolation: isolate"><g id="blend" style="mix-blend-mode: normal"><g id="g-root-ro_1qa430u1etkqh6-fill" data-item-order="-23400" transform="translate(255, 252)"><g id="ro_1qa430u1etkqh6-fill" stroke="none" fill="#545454"><g><path d="M 34 10L 142 10C 142 10 166 10 166 34L 166 136C 166 136 166 160 142 160L 34 160C 34 160 10 160 10 136L 10 34C 10 34 10 10 34 10"></path></g></g></g><g id="g-root-ro_1ut0qby1f3ixhm-fill" data-item-order="-11664" transform="translate(383, 39)"><g id="ro_1ut0qby1f3ixhm-fill" stroke="none" fill="#344e57"><g><path d="M 22 10L 214 10C 214 10 226 10 226 22L 226 52C 226 52 226 64 214 64L 22 64C 22 64 10 64 10 52L 10 22C 10 22 10 10 22 10"></path></g></g></g><g id="g-root-ro_18n65vy1f393wp-fill" data-item-order="-8424" transform="translate(383, 489)"><g id="ro_18n65vy1f393wp-fill" stroke="none" fill="#4b533a"><g><path d="M 22 10L 154 10C 154 10 166 10 166 22L 166 52C 166 52 166 64 154 64L 22 64C 22 64 10 64 10 52L 10 22C 10 22 10 10 22 10"></path></g></g></g><g id="g-root-ro_v3lkjy1f3pwxx-fill" data-item-order="-7776" transform="translate(139, 39)"><g id="ro_v3lkjy1f3pwxx-fill" stroke="none" fill="#4b533a"><g><path d="M 22 10L 142 10C 142 10 154 10 154 22L 154 52C 154 52 154 64 142 64L 22 64C 22 64 10 64 10 52L 10 22C 10 22 10 10 22 10"></path></g></g></g><g id="g-root-ro_1lux55a1etkqve-fill" data-item-order="-7776" transform="translate(459, 339)"><g id="ro_1lux55a1etkqve-fill" stroke="none" fill="#54502f"><g><path d="M 22 10L 142 10C 142 10 154 10 154 22L 154 52C 154 52 154 64 142 64L 22 64C 22 64 10 64 10 52L 10 22C 10 22 10 10 22 10"></path></g></g></g><g id="g-root-ro_hvvwpa1f3lrlz-fill" data-item-order="-7776" transform="translate(63, 339)"><g id="ro_hvvwpa1f3lrlz-fill" stroke="none" fill="#3e4e69"><g><path d="M 22 10L 142 10C 142 10 154 10 154 22L 154 52C 154 52 154 64 142 64L 22 64C 22 64 10 64 10 52L 10 22C 10 22 10 10 22 10"></path></g></g></g><g id="g-root-ro_1hhljda1etgikg-fill" data-item-order="-7776" transform="translate(459, 189)"><g id="ro_1hhljda1etgikg-fill" stroke="none" fill="#60436d"><g><path d="M 22 10L 142 10C 142 10 154 10 154 22L 154 52C 154 52 154 64 142 64L 22 64C 22 64 10 64 10 52L 10 22C 10 22 10 10 22 10"></path></g></g></g><g id="g-root-ro_ddki8e1f3kaoc-fill" data-item-order="-7776" transform="translate(63, 189)"><g id="ro_ddki8e1f3kaoc-fill" stroke="none" fill="#54502f"><g><path d="M 22 10L 142 10C 142 10 154 10 154 22L 154 52C 154 52 154 64 142 64L 22 64C 22 64 10 64 10 52L 10 22C 10 22 10 10 22 10"></path></g></g></g><g id="g-root-ro_dj6s0e1f3n66i-fill" data-item-order="-7128" transform="translate(151, 489)"><g id="ro_dj6s0e1f3n66i-fill" stroke="none" fill="#68403f"><g><path d="M 22 10L 130 10C 130 10 142 10 142 22L 142 52C 142 52 142 64 130 64L 22 64C 22 64 10 64 10 52L 10 22C 10 22 10 10 22 10"></path></g></g></g><g id="g-root-ro_1d1qpu61f3rbbg-fill" data-item-order="-6480" transform="translate(273, 639)"><g id="ro_1d1qpu61f3rbbg-fill" stroke="none" fill="#5c4938"><g><path d="M 22 10L 118 10C 118 10 130 10 130 22L 130 52C 130 52 130 64 118 64L 22 64C 22 64 10 64 10 52L 10 22C 10 22 10 10 22 10"></path></g></g></g><g id="g-root-cu_1hf2ery1f3pypz-fill" data-item-order="0" transform="translate(241, 93)"></g><g id="g-root-cu_1cz8wni1f3pzia-fill" data-item-order="0" transform="translate(241, 93)"></g><g id="g-root-tx_carbonyl_146q9u61f3hhjg-fill" data-item-order="0" transform="translate(431, 555)"><g id="tx_carbonyl_146q9u61f3hhjg-fill" stroke="none" fill="#f4f4f4"><g><text style="font: 20px Roboto, sans-serif; white-space: pre;" font-size="20px" font-family="Roboto, sans-serif"><tspan x="13.27" y="34" dominant-baseline="ideographic">Carbonyl Group</tspan></text></g></g></g><g id="g-root-tx_withalky_zislla1f3ivwj-fill" data-item-order="0" transform="translate(321, 741)"><g id="tx_withalky_zislla1f3ivwj-fill" stroke="none" fill="#f4f4f4"><g><text style="font: 20px Roboto, sans-serif; white-space: pre;" font-size="20px" font-family="Roboto, sans-serif"><tspan x="15.72" y="34" dominant-baseline="ideographic">With Alkyl Groups</tspan></text></g></g></g><g id="g-root-cu_1448dhq1f3px58-fill" data-item-order="0" transform="translate(407, 93)"></g><g id="g-root-cu_zoevda1f3pxxj-fill" data-item-order="0" transform="translate(407, 93)"></g><g id="g-root-cu_1luvwwe1f3pxxp-fill" data-item-order="0" transform="translate(407, 543)"></g><g id="g-root-cu_1uqix5a1f3px4y-fill" data-item-order="0" transform="translate(407, 543)"></g><g id="g-root-tx_carboxyl_1uu9rny1f3hjpk-fill" data-item-order="0" transform="translate(431, 105)"><g id="tx_carboxyl_1uu9rny1f3hjpk-fill" stroke="none" fill="#f4f4f4"><g><text style="font: 20px Roboto, sans-serif; white-space: pre;" font-size="20px" font-family="Roboto, sans-serif"><tspan x="13.94" y="34" dominant-baseline="ideographic">Carboxyl Group</tspan></text></g></g></g><g id="g-root-tx_withalky_8z7ta1f3hj4f-fill" data-item-order="0" transform="translate(67, 141)"><g id="tx_withalky_8z7ta1f3hj4f-fill" stroke="none" fill="#f4f4f4"><g><text style="font: 20px Roboto, sans-serif; white-space: pre;" font-size="20px" font-family="Roboto, sans-serif"><tspan x="15.72" y="34" dominant-baseline="ideographic">With Alkyl Groups</tspan></text></g></g></g><g id="g-root-cu_58dam1f3pwjs-fill" data-item-order="0" transform="translate(241, 543)"></g><g id="g-root-cu_dg2eku1f3py4l-fill" data-item-order="0" transform="translate(241, 543)"></g><g id="g-root-tx_acidicna_1hjfqdq1f3hi4p-fill" data-item-order="0" transform="translate(431, 141)"><g id="tx_acidicna_1hjfqdq1f3hi4p-fill" stroke="none" fill="#f4f4f4"><g><text style="font: 20px Roboto, sans-serif; white-space: pre;" font-size="20px" font-family="Roboto, sans-serif"><tspan x="16.1" y="34" dominant-baseline="ideographic">Acidic Nature</tspan></text></g></g></g><g id="g-root-tx_carbonyl_dkfq6m1f3hhji-fill" data-item-order="0" transform="translate(91, 105)"><g id="tx_carbonyl_dkfq6m1f3hhji-fill" stroke="none" fill="#f4f4f4"><g><text style="font: 20px Roboto, sans-serif; white-space: pre;" font-size="20px" font-family="Roboto, sans-serif"><tspan x="13.27" y="34" dominant-baseline="ideographic">Carbonyl Group</tspan></text></g></g></g><g id="g-root-tx_etherlin_1qd7bda1f3hibm-fill" data-item-order="0" transform="translate(103, 555)"><g id="tx_etherlin_1qd7bda1f3hibm-fill" stroke="none" fill="#f4f4f4"><g><text style="font: 20px Roboto, sans-serif; white-space: pre;" font-size="20px" font-family="Roboto, sans-serif"><tspan x="15.64" y="34" dominant-baseline="ideographic">Ether Linkage</tspan></text></g></g></g><g id="g-root-tx_nonpolar_1d1qszy1f3hjwj-fill" data-item-order="0" transform="translate(139, 591)"><g id="tx_nonpolar_1d1qszy1f3hjwj-fill" stroke="none" fill="#f4f4f4"><g><text style="font: 20px Roboto, sans-serif; white-space: pre;" font-size="20px" font-family="Roboto, sans-serif"><tspan x="13.69" y="34" dominant-baseline="ideographic">Non-Polar</tspan></text></g></g></g><g id="g-root-tx_withhydr_qv9rgu1f3hj4d-fill" data-item-order="0" transform="translate(431, 591)"><g id="tx_withhydr_qv9rgu1f3hj4d-fill" stroke="none" fill="#f4f4f4"><g><text style="font: 20px Roboto, sans-serif; white-space: pre;" font-size="20px" font-family="Roboto, sans-serif"><tspan x="16.59" y="34" dominant-baseline="ideographic">With Hydrogen</tspan></text></g></g></g><g id="g-root-cu_de6zbi1f3pybv-fill" data-item-order="0" transform="translate(359, 66)"></g><g id="g-root-cu_4hb0we1f3pwxy-fill" data-item-order="0" transform="translate(207, 216)"></g><g id="g-root-tx_highlyre_me7b661f3hhqf-fill" data-item-order="0" transform="translate(507, 441)"><g id="tx_highlyre_me7b661f3hhqf-fill" stroke="none" fill="#f4f4f4"><g><text style="font: 20px Roboto, sans-serif; white-space: pre;" font-size="20px" font-family="Roboto, sans-serif"><tspan x="13.79" y="34" dominant-baseline="ideographic">Highly Reactive</tspan></text></g></g></g><g id="g-root-cu_1cw4j7y1f3pwqx-fill" data-item-order="0" transform="translate(411, 216)"></g><g id="g-root-tx_polarnat_4mxaoe1f3hk3l-fill" data-item-order="0" transform="translate(39, 441)"><g id="tx_polarnat_4mxaoe1f3hk3l-fill" stroke="none" fill="#f4f4f4"><g><text style="font: 20px Roboto, sans-serif; white-space: pre;" font-size="20px" font-family="Roboto, sans-serif"><tspan x="14.38" y="34" dominant-baseline="ideographic">Polar Nature</tspan></text></g></g></g><g id="g-root-tx_triplebo_qtec7i1f3hk3y-fill" data-item-order="0" transform="translate(507, 405)"><g id="tx_triplebo_qtec7i1f3hk3y-fill" stroke="none" fill="#f4f4f4"><g><text style="font: 20px Roboto, sans-serif; white-space: pre;" font-size="20px" font-family="Roboto, sans-serif"><tspan x="14.53" y="34" dominant-baseline="ideographic">Triple Bonds</tspan></text></g></g></g><g id="g-root-tx_singlebo_znsea61f3hh56-fill" data-item-order="0" transform="translate(39, 255)"><g id="tx_singlebo_znsea61f3hh56-fill" stroke="none" fill="#f4f4f4"><g><text style="font: 20px Roboto, sans-serif; white-space: pre;" font-size="20px" font-family="Roboto, sans-serif"><tspan x="12.07" y="34" dominant-baseline="ideographic">Single Bonds</tspan></text></g></g></g><g id="g-root-cu_4j6g5q1f3pwqp-fill" data-item-order="0" transform="translate(165, 243)"></g><g id="g-root-cu_1cxzyha1f3pwjo-fill" data-item-order="0" transform="translate(165, 243)"></g><g id="g-root-cu_mbpetq1f3pwjy-fill" data-item-order="0" transform="translate(483, 393)"></g><g id="g-root-cu_m9tzke1f3pxj4-fill" data-item-order="0" transform="translate(283, 66)"></g><g id="g-root-cu_zmjg3y1f3py4r-fill" data-item-order="0" transform="translate(483, 393)"></g><g id="g-root-cu_v4uiq61f3pz4d-fill" data-item-order="0" transform="translate(359, 402)"></g><g id="g-root-cu_8ydh721f3pz46-fill" data-item-order="0" transform="translate(333, 402)"></g><g id="g-root-cu_142cy8e1f3pxce-fill" data-item-order="0" transform="translate(483, 243)"></g><g id="g-root-cu_zmjg3y1f3py4p-fill" data-item-order="0" transform="translate(483, 243)"></g><g id="g-root-cu_140hiz21f3pybm-fill" data-item-order="0" transform="translate(283, 402)"></g><g id="g-root-cu_dg2eku1f3py4j-fill" data-item-order="0" transform="translate(165, 393)"></g><g id="g-root-cu_qriwy61f3pwjk-fill" data-item-order="0" transform="translate(165, 393)"></g><g id="g-root-tx_doublebo_1ur5e8e1f3hij0-fill" data-item-order="0" transform="translate(507, 255)"><g id="tx_doublebo_1ur5e8e1f3hij0-fill" stroke="none" fill="#f4f4f4"><g><text style="font: 20px Roboto, sans-serif; white-space: pre;" font-size="20px" font-family="Roboto, sans-serif"><tspan x="14.17" y="34" dominant-baseline="ideographic">Double Bonds</tspan></text></g></g></g><g id="g-root-tx_unreacti_hwidse1f3hjib-fill" data-item-order="0" transform="translate(51, 291)"><g id="tx_unreacti_hwidse1f3hjib-fill" stroke="none" fill="#f4f4f4"><g><text style="font: 20px Roboto, sans-serif; white-space: pre;" font-size="20px" font-family="Roboto, sans-serif"><tspan x="16.96" y="34" dominant-baseline="ideographic">Unreactive</tspan></text></g></g></g><g id="g-root-tx_hydroxyl_92qssu1f3hjbc-fill" data-item-order="0" transform="translate(15, 405)"><g id="tx_hydroxyl_92qssu1f3hjbc-fill" stroke="none" fill="#f4f4f4"><g><text style="font: 20px Roboto, sans-serif; white-space: pre;" font-size="20px" font-family="Roboto, sans-serif"><tspan x="14.16" y="34" dominant-baseline="ideographic">Hydroxyl Group</tspan></text></g></g></g><g id="g-root-cu_1cw4j7y1f3pwr0-fill" data-item-order="0" transform="translate(411, 352)"></g><g id="g-root-cu_18gb13i1f3pxjb-fill" data-item-order="0" transform="translate(207, 352)"></g><g id="g-root-cu_mcyczy1f3pzik-fill" data-item-order="0" transform="translate(297, 693)"></g><g id="g-root-tx_morereac_1hfovv21f3hk3x-fill" data-item-order="0" transform="translate(507, 291)"><g id="tx_morereac_1hfovv21f3hk3x-fill" stroke="none" fill="#f4f4f4"><g><text style="font: 20px Roboto, sans-serif; white-space: pre;" font-size="20px" font-family="Roboto, sans-serif"><tspan x="12.6" y="34" dominant-baseline="ideographic">More Reactive</tspan></text></g></g></g><g id="g-root-tx_carbonyl_1d3m89a1f3hiwy-fill" data-item-order="0" transform="translate(321, 705)"><g id="tx_carbonyl_1d3m89a1f3hiwy-fill" stroke="none" fill="#f4f4f4"><g><text style="font: 20px Roboto, sans-serif; white-space: pre;" font-size="20px" font-family="Roboto, sans-serif"><tspan x="13.27" y="34" dominant-baseline="ideographic">Carbonyl Group</tspan></text></g></g></g><g id="g-root-cu_v8ld8u1f3pypt-fill" data-item-order="0" transform="translate(297, 693)"></g><g id="g-root-tx_alcohols_1cxzyha1f3lqtp-fill" data-item-order="1000000000" transform="translate(75, 354)"><g id="tx_alcohols_1cxzyha1f3lqtp-fill" stroke="none" fill="#4f91fc"><g><text style="font: 20px Roboto, sans-serif; white-space: pre;" font-size="20px" font-family="Roboto, sans-serif"><tspan x="13.31" y="34" dominant-baseline="ideographic">Alcohols</tspan></text></g></g></g><g id="g-root-add_mbpetq1f3lqtq-fill" data-item-order="1000000000" transform="translate(165, 351)"></g><g id="g-root-tx_function_1uo25vy1etkrgg-fill" data-item-order="1000000000" transform="translate(279, 330)"><g id="tx_function_1uo25vy1etkrgg-fill" stroke="none" fill="#f4f4f4"><g><text style="font: 20px Roboto, sans-serif; white-space: pre;" font-size="20px" font-family="Roboto, sans-serif"><tspan x="15.05" y="34" dominant-baseline="ideographic">Functional </tspan><tspan x="29.43" y="58" dominant-baseline="ideographic">Groups</tspan></text></g></g></g><g id="g-root-bohr_1uqk5e61etkq2p-fill" data-item-order="1000000000" transform="translate(471, 351)"></g><g id="g-root-tx_alkynes_qrk5721etkphk-fill" data-item-order="1000000000" transform="translate(507, 354)"><g id="tx_alkynes_qrk5721etkphk-fill" stroke="none" fill="#ffe711"><g><text style="font: 20px Roboto, sans-serif; white-space: pre;" font-size="20px" font-family="Roboto, sans-serif"><tspan x="17.27" y="34" dominant-baseline="ideographic">Alkynes</tspan></text></g></g></g><g id="g-root-1_v6r32m1etkp3d-fill" data-item-order="1000000000" transform="translate(309, 276)"></g><g id="g-root-tx_alkenes_750su1etgjk6-fill" data-item-order="1000000000" transform="translate(507, 204)"><g id="tx_alkenes_750su1etgjk6-fill" stroke="none" fill="#cb68f9"><g><text style="font: 20px Roboto, sans-serif; white-space: pre;" font-size="20px" font-family="Roboto, sans-serif"><tspan x="16.8" y="34" dominant-baseline="ideographic">Alkenes</tspan></text></g></g></g><g id="g-root-tx_ethers_1hgxu1a1f3n4lk-fill" data-item-order="1000000000" transform="translate(163, 504)"><g id="tx_ethers_1hgxu1a1f3n4lk-fill" stroke="none" fill="#fb6762"><g><text style="font: 20px Roboto, sans-serif; white-space: pre;" font-size="20px" font-family="Roboto, sans-serif"><tspan x="17.7" y="34" dominant-baseline="ideographic">Ethers</tspan></text></g></g></g><g id="g-root-oxyg_qunadq1f3n4ll-fill" data-item-order="1000000000" transform="translate(241, 501)"></g><g id="g-root-bott_1lxf1hq1etghs7-fill" data-item-order="1000000000" transform="translate(471, 201)"></g><g id="g-root-can_1hit64u1f39340-fill" data-item-order="1000000000" transform="translate(395, 501)"></g><g id="g-root-tx_aldehyde_1lymo9a1f392br-fill" data-item-order="1000000000" transform="translate(431, 504)"><g id="tx_aldehyde_1lymo9a1f392br-fill" stroke="none" fill="#a6da37"><g><text style="font: 20px Roboto, sans-serif; white-space: pre;" font-size="20px" font-family="Roboto, sans-serif"><tspan x="11.84" y="34" dominant-baseline="ideographic">Aldehydes</tspan></text></g></g></g><g id="g-root-hydr_zk1jri1f3kbgj-fill" data-item-order="1000000000" transform="translate(165, 201)"></g><g id="g-root-tx_alkanes_13zv1vy1f3kaoa-fill" data-item-order="1000000000" transform="translate(75, 204)"><g id="tx_alkanes_13zv1vy1f3kaoa-fill" stroke="none" fill="#ffe711"><g><text style="font: 20px Roboto, sans-serif; white-space: pre;" font-size="20px" font-family="Roboto, sans-serif"><tspan x="16.57" y="34" dominant-baseline="ideographic">Alkanes</tspan></text></g></g></g><g id="g-root-tx_carboxyl_hydpvy1f3iygw-fill" data-item-order="1000000000" transform="translate(431, 54)"><g id="tx_carboxyl_hydpvy1f3iygw-fill" stroke="none" fill="#1ac3fb"><g><text style="font: 20px Roboto, sans-serif; white-space: pre;" font-size="20px" font-family="Roboto, sans-serif"><tspan x="14.22" y="34" dominant-baseline="ideographic">Carboxylic Acids</tspan></text></g></g></g><g id="g-root-acor_1qckr4e1f3rcwb-fill" data-item-order="1000000000" transform="translate(285, 651)"></g><g id="g-root-tx_esters_4mx7im1f3rbii-fill" data-item-order="1000000000" transform="translate(321, 654)"><g id="tx_esters_4mx7im1f3rbii-fill" stroke="none" fill="#f79438"><g><text style="font: 20px Roboto, sans-serif; white-space: pre;" font-size="20px" font-family="Roboto, sans-serif"><tspan x="12.05" y="34" dominant-baseline="ideographic">Esters</tspan></text></g></g></g><g id="g-root-subt_4njolq1f3iww1-fill" data-item-order="1000000000" transform="translate(395, 51)"></g><g id="g-root-coco_18eflu61f3pyis-fill" data-item-order="1000000000" transform="translate(241, 51)"></g><g id="g-root-tx_ketones_9lowe1f3ok5f-fill" data-item-order="1000000000" transform="translate(151, 54)"><g id="tx_ketones_9lowe1f3ok5f-fill" stroke="none" fill="#a6da37"><g><text style="font: 20px Roboto, sans-serif; white-space: pre;" font-size="20px" font-family="Roboto, sans-serif"><tspan x="15.71" y="34" dominant-baseline="ideographic">Ketones</tspan></text></g></g></g><g id="g-root-ro_1qa430u1etkqh6-stroke" data-item-order="-23400" transform="translate(255, 252)"><g id="ro_1qa430u1etkqh6-stroke" fill="none" stroke-linecap="round" stroke-linejoin="round" stroke-miterlimit="4" stroke="#f4f4f4" stroke-width="2"><g><path d="M 34 10L 142 10C 142 10 166 10 166 34L 166 136C 166 136 166 160 142 160L 34 160C 34 160 10 160 10 136L 10 34C 10 34 10 10 34 10"></path></g></g></g><g id="g-root-ro_1ut0qby1f3ixhm-stroke" data-item-order="-11664" transform="translate(383, 39)"><g id="ro_1ut0qby1f3ixhm-stroke" fill="none" stroke-linecap="round" stroke-linejoin="round" stroke-miterlimit="4" stroke="#1ac3fb" stroke-width="2"><g><path d="M 22 10L 214 10C 214 10 226 10 226 22L 226 52C 226 52 226 64 214 64L 22 64C 22 64 10 64 10 52L 10 22C 10 22 10 10 22 10"></path></g></g></g><g id="g-root-ro_18n65vy1f393wp-stroke" data-item-order="-8424" transform="translate(383, 489)"><g id="ro_18n65vy1f393wp-stroke" fill="none" stroke-linecap="round" stroke-linejoin="round" stroke-miterlimit="4" stroke="#a6da37" stroke-width="2"><g><path d="M 22 10L 154 10C 154 10 166 10 166 22L 166 52C 166 52 166 64 154 64L 22 64C 22 64 10 64 10 52L 10 22C 10 22 10 10 22 10"></path></g></g></g><g id="g-root-ro_v3lkjy1f3pwxx-stroke" data-item-order="-7776" transform="translate(139, 39)"><g id="ro_v3lkjy1f3pwxx-stroke" fill="none" stroke-linecap="round" stroke-linejoin="round" stroke-miterlimit="4" stroke="#a6da37" stroke-width="2"><g><path d="M 22 10L 142 10C 142 10 154 10 154 22L 154 52C 154 52 154 64 142 64L 22 64C 22 64 10 64 10 52L 10 22C 10 22 10 10 22 10"></path></g></g></g><g id="g-root-ro_1lux55a1etkqve-stroke" data-item-order="-7776" transform="translate(459, 339)"><g id="ro_1lux55a1etkqve-stroke" fill="none" stroke-linecap="round" stroke-linejoin="round" stroke-miterlimit="4" stroke="#ffe711" stroke-width="2"><g><path d="M 22 10L 142 10C 142 10 154 10 154 22L 154 52C 154 52 154 64 142 64L 22 64C 22 64 10 64 10 52L 10 22C 10 22 10 10 22 10"></path></g></g></g><g id="g-root-ro_hvvwpa1f3lrlz-stroke" data-item-order="-7776" transform="translate(63, 339)"><g id="ro_hvvwpa1f3lrlz-stroke" fill="none" stroke-linecap="round" stroke-linejoin="round" stroke-miterlimit="4" stroke="#4f91fc" stroke-width="2"><g><path d="M 22 10L 142 10C 142 10 154 10 154 22L 154 52C 154 52 154 64 142 64L 22 64C 22 64 10 64 10 52L 10 22C 10 22 10 10 22 10"></path></g></g></g><g id="g-root-ro_1hhljda1etgikg-stroke" data-item-order="-7776" transform="translate(459, 189)"><g id="ro_1hhljda1etgikg-stroke" fill="none" stroke-linecap="round" stroke-linejoin="round" stroke-miterlimit="4" stroke="#cb68f9" stroke-width="2"><g><path d="M 22 10L 142 10C 142 10 154 10 154 22L 154 52C 154 52 154 64 142 64L 22 64C 22 64 10 64 10 52L 10 22C 10 22 10 10 22 10"></path></g></g></g><g id="g-root-ro_ddki8e1f3kaoc-stroke" data-item-order="-7776" transform="translate(63, 189)"><g id="ro_ddki8e1f3kaoc-stroke" fill="none" stroke-linecap="round" stroke-linejoin="round" stroke-miterlimit="4" stroke="#ffe711" stroke-width="2"><g><path d="M 22 10L 142 10C 142 10 154 10 154 22L 154 52C 154 52 154 64 142 64L 22 64C 22 64 10 64 10 52L 10 22C 10 22 10 10 22 10"></path></g></g></g><g id="g-root-ro_dj6s0e1f3n66i-stroke" data-item-order="-7128" transform="translate(151, 489)"><g id="ro_dj6s0e1f3n66i-stroke" fill="none" stroke-linecap="round" stroke-linejoin="round" stroke-miterlimit="4" stroke="#fb6762" stroke-width="2"><g><path d="M 22 10L 130 10C 130 10 142 10 142 22L 142 52C 142 52 142 64 130 64L 22 64C 22 64 10 64 10 52L 10 22C 10 22 10 10 22 10"></path></g></g></g><g id="g-root-ro_1d1qpu61f3rbbg-stroke" data-item-order="-6480" transform="translate(273, 639)"><g id="ro_1d1qpu61f3rbbg-stroke" fill="none" stroke-linecap="round" stroke-linejoin="round" stroke-miterlimit="4" stroke="#f79438" stroke-width="2"><g><path d="M 22 10L 118 10C 118 10 130 10 130 22L 130 52C 130 52 130 64 118 64L 22 64C 22 64 10 64 10 52L 10 22C 10 22 10 10 22 10"></path></g></g></g><g id="g-root-cu_1hf2ery1f3pypz-stroke" data-item-order="0" transform="translate(241, 93)"><g id="cu_1hf2ery1f3pypz-stroke" fill="none" stroke-linecap="round" stroke-linejoin="round" stroke-miterlimit="4" stroke="#b7b7b7" stroke-width="2" stroke-dasharray="5.0, 7.0"><g><path d="M 28 10L 28 22L 28 34L 19 34L 10 34"></path></g></g></g><g id="g-root-cu_1cz8wni1f3pzia-stroke" data-item-order="0" transform="translate(241, 93)"><g id="cu_1cz8wni1f3pzia-stroke" fill="none" stroke-linecap="round" stroke-linejoin="round" stroke-miterlimit="4" stroke="#b7b7b7" stroke-width="2" stroke-dasharray="5.0, 7.0"><g><path d="M 28 10L 28 17.5L 28 58C 27.999999 64.627415 22.627416 69.999998 16 69.999998L 15.9 70L 10 70"></path></g></g></g><g id="g-root-tx_carbonyl_146q9u61f3hhjg-stroke" data-item-order="0" transform="translate(431, 555)"></g><g id="g-root-tx_withalky_zislla1f3ivwj-stroke" data-item-order="0" transform="translate(321, 741)"></g><g id="g-root-cu_1448dhq1f3px58-stroke" data-item-order="0" transform="translate(407, 93)"><g id="cu_1448dhq1f3px58-stroke" fill="none" stroke-linecap="round" stroke-linejoin="round" stroke-miterlimit="4" stroke="#b7b7b7" stroke-width="2" stroke-dasharray="5.0, 7.0"><g><path d="M 10 10L 10 22L 10 34L 19 34L 28 34"></path></g></g></g><g id="g-root-cu_zoevda1f3pxxj-stroke" data-item-order="0" transform="translate(407, 93)"><g id="cu_zoevda1f3pxxj-stroke" fill="none" stroke-linecap="round" stroke-linejoin="round" stroke-miterlimit="4" stroke="#b7b7b7" stroke-width="2" stroke-dasharray="5.0, 7.0"><g><path d="M 10 10L 10 17.5L 10 58C 10.000002 64.627417 15.372585 70 22.000002 69.999999L 22.1 70L 28 70"></path></g></g></g><g id="g-root-cu_1luvwwe1f3pxxp-stroke" data-item-order="0" transform="translate(407, 543)"><g id="cu_1luvwwe1f3pxxp-stroke" fill="none" stroke-linecap="round" stroke-linejoin="round" stroke-miterlimit="4" stroke="#b7b7b7" stroke-width="2" stroke-dasharray="5.0, 7.0"><g><path d="M 10 10L 10 17.5L 10 58C 10.000002 64.627417 15.372585 70 22.000002 69.999999L 22.1 70L 28 70"></path></g></g></g><g id="g-root-cu_1uqix5a1f3px4y-stroke" data-item-order="0" transform="translate(407, 543)"><g id="cu_1uqix5a1f3px4y-stroke" fill="none" stroke-linecap="round" stroke-linejoin="round" stroke-miterlimit="4" stroke="#b7b7b7" stroke-width="2" stroke-dasharray="5.0, 7.0"><g><path d="M 10 10L 10 22L 10 34L 19 34L 28 34"></path></g></g></g><g id="g-root-tx_carboxyl_1uu9rny1f3hjpk-stroke" data-item-order="0" transform="translate(431, 105)"></g><g id="g-root-tx_withalky_8z7ta1f3hj4f-stroke" data-item-order="0" transform="translate(67, 141)"></g><g id="g-root-cu_58dam1f3pwjs-stroke" data-item-order="0" transform="translate(241, 543)"><g id="cu_58dam1f3pwjs-stroke" fill="none" stroke-linecap="round" stroke-linejoin="round" stroke-miterlimit="4" stroke="#b7b7b7" stroke-width="2" stroke-dasharray="5.0, 7.0"><g><path d="M 28 10L 28 17.5L 28 58C 27.999999 64.627415 22.627416 69.999998 16 69.999998L 15.9 70L 10 70"></path></g></g></g><g id="g-root-cu_dg2eku1f3py4l-stroke" data-item-order="0" transform="translate(241, 543)"><g id="cu_dg2eku1f3py4l-stroke" fill="none" stroke-linecap="round" stroke-linejoin="round" stroke-miterlimit="4" stroke="#b7b7b7" stroke-width="2" stroke-dasharray="5.0, 7.0"><g><path d="M 28 10L 28 22L 28 34L 19 34L 10 34"></path></g></g></g><g id="g-root-tx_acidicna_1hjfqdq1f3hi4p-stroke" data-item-order="0" transform="translate(431, 141)"></g><g id="g-root-tx_carbonyl_dkfq6m1f3hhji-stroke" data-item-order="0" transform="translate(91, 105)"></g><g id="g-root-tx_etherlin_1qd7bda1f3hibm-stroke" data-item-order="0" transform="translate(103, 555)"></g><g id="g-root-tx_nonpolar_1d1qszy1f3hjwj-stroke" data-item-order="0" transform="translate(139, 591)"></g><g id="g-root-tx_withhydr_qv9rgu1f3hj4d-stroke" data-item-order="0" transform="translate(431, 591)"></g><g id="g-root-cu_de6zbi1f3pybv-stroke" data-item-order="0" transform="translate(359, 66)"><g id="cu_de6zbi1f3pybv-stroke" fill="none" stroke-linecap="round" stroke-linejoin="round" stroke-miterlimit="4" stroke="#b7b7b7" stroke-width="2" stroke-dasharray="5.0, 7.0"><g><path d="M 10 196L 10 172.8L 10 30.9C 10 19.357248 19.357248 10 30.899998 10L 31 10L 34 10"></path></g></g></g><g id="g-root-cu_4hb0we1f3pwxy-stroke" data-item-order="0" transform="translate(207, 216)"><g id="cu_4hb0we1f3pwxy-stroke" fill="none" stroke-linecap="round" stroke-linejoin="round" stroke-miterlimit="4" stroke="#b7b7b7" stroke-width="2" stroke-dasharray="5.0, 7.0"><g><path d="M 58 96L 55 96L 54.9 96C 43.357245 95.999996 33.999997 86.642747 33.999997 75.099997L 34 75L 34 30.9C 33.999998 19.357248 24.64275 10 13.1 10L 13 10L 10 10"></path></g></g></g><g id="g-root-tx_highlyre_me7b661f3hhqf-stroke" data-item-order="0" transform="translate(507, 441)"></g><g id="g-root-cu_1cw4j7y1f3pwqx-stroke" data-item-order="0" transform="translate(411, 216)"><g id="cu_1cw4j7y1f3pwqx-stroke" fill="none" stroke-linecap="round" stroke-linejoin="round" stroke-miterlimit="4" stroke="#b7b7b7" stroke-width="2" stroke-dasharray="5.0, 7.0"><g><path d="M 10 96L 13 96L 13.1 96C 24.642748 96.000003 33.999998 86.642755 33.999998 75.100003L 34 75L 34 30.9C 33.999999 19.357249 43.357248 10.000001 54.899999 10.000002L 55 10L 58 10"></path></g></g></g><g id="g-root-tx_polarnat_4mxaoe1f3hk3l-stroke" data-item-order="0" transform="translate(39, 441)"></g><g id="g-root-tx_triplebo_qtec7i1f3hk3y-stroke" data-item-order="0" transform="translate(507, 405)"></g><g id="g-root-tx_singlebo_znsea61f3hh56-stroke" data-item-order="0" transform="translate(39, 255)"></g><g id="g-root-cu_4j6g5q1f3pwqp-stroke" data-item-order="0" transform="translate(165, 243)"><g id="cu_4j6g5q1f3pwqp-stroke" fill="none" stroke-linecap="round" stroke-linejoin="round" stroke-miterlimit="4" stroke="#b7b7b7" stroke-width="2" stroke-dasharray="5.0, 7.0"><g><path d="M 28 10L 28 22L 28 34L 19 34L 10 34"></path></g></g></g><g id="g-root-cu_1cxzyha1f3pwjo-stroke" data-item-order="0" transform="translate(165, 243)"><g id="cu_1cxzyha1f3pwjo-stroke" fill="none" stroke-linecap="round" stroke-linejoin="round" stroke-miterlimit="4" stroke="#b7b7b7" stroke-width="2" stroke-dasharray="5.0, 7.0"><g><path d="M 28 10L 28 17.5L 28 58C 27.999999 64.627415 22.627416 69.999998 16 69.999998L 15.9 70L 10 70"></path></g></g></g><g id="g-root-cu_mbpetq1f3pwjy-stroke" data-item-order="0" transform="translate(483, 393)"><g id="cu_mbpetq1f3pwjy-stroke" fill="none" stroke-linecap="round" stroke-linejoin="round" stroke-miterlimit="4" stroke="#b7b7b7" stroke-width="2" stroke-dasharray="5.0, 7.0"><g><path d="M 10 10L 10 17.5L 10 58C 10.000002 64.627417 15.372585 70 22.000002 69.999999L 22.1 70L 28 70"></path></g></g></g><g id="g-root-cu_m9tzke1f3pxj4-stroke" data-item-order="0" transform="translate(283, 66)"><g id="cu_m9tzke1f3pxj4-stroke" fill="none" stroke-linecap="round" stroke-linejoin="round" stroke-miterlimit="4" stroke="#b7b7b7" stroke-width="2" stroke-dasharray="5.0, 7.0"><g><path d="M 34 196L 34 172.8L 34 30.9C 33.999998 19.357248 24.64275 10 13.1 10L 13 10L 10 10"></path></g></g></g><g id="g-root-cu_zmjg3y1f3py4r-stroke" data-item-order="0" transform="translate(483, 393)"><g id="cu_zmjg3y1f3py4r-stroke" fill="none" stroke-linecap="round" stroke-linejoin="round" stroke-miterlimit="4" stroke="#b7b7b7" stroke-width="2" stroke-dasharray="5.0, 7.0"><g><path d="M 10 10L 10 22L 10 34L 19 34L 28 34"></path></g></g></g><g id="g-root-cu_v4uiq61f3pz4d-stroke" data-item-order="0" transform="translate(359, 402)"><g id="cu_v4uiq61f3pz4d-stroke" fill="none" stroke-linecap="round" stroke-linejoin="round" stroke-miterlimit="4" stroke="#b7b7b7" stroke-width="2" stroke-dasharray="5.0, 7.0"><g><path d="M 10 10L 10 24.3L 10 103.1C 10 114.642752 19.357249 124.000001 30.900001 124.000001L 31 124L 34 124"></path></g></g></g><g id="g-root-cu_8ydh721f3pz46-stroke" data-item-order="0" transform="translate(333, 402)"><g id="cu_8ydh721f3pz46-stroke" fill="none" stroke-linecap="round" stroke-linejoin="round" stroke-miterlimit="4" stroke="#b7b7b7" stroke-width="2" stroke-dasharray="5.0, 7.0"><g><path d="M 10 10L 10 128.5L 10 247"></path></g></g></g><g id="g-root-cu_142cy8e1f3pxce-stroke" data-item-order="0" transform="translate(483, 243)"><g id="cu_142cy8e1f3pxce-stroke" fill="none" stroke-linecap="round" stroke-linejoin="round" stroke-miterlimit="4" stroke="#b7b7b7" stroke-width="2" stroke-dasharray="5.0, 7.0"><g><path d="M 10 10L 10 22L 10 34L 19 34L 28 34"></path></g></g></g><g id="g-root-cu_zmjg3y1f3py4p-stroke" data-item-order="0" transform="translate(483, 243)"><g id="cu_zmjg3y1f3py4p-stroke" fill="none" stroke-linecap="round" stroke-linejoin="round" stroke-miterlimit="4" stroke="#b7b7b7" stroke-width="2" stroke-dasharray="5.0, 7.0"><g><path d="M 10 10L 10 17.5L 10 58C 10.000002 64.627417 15.372585 70 22.000002 69.999999L 22.1 70L 28 70"></path></g></g></g><g id="g-root-cu_140hiz21f3pybm-stroke" data-item-order="0" transform="translate(283, 402)"><g id="cu_140hiz21f3pybm-stroke" fill="none" stroke-linecap="round" stroke-linejoin="round" stroke-miterlimit="4" stroke="#b7b7b7" stroke-width="2" stroke-dasharray="5.0, 7.0"><g><path d="M 34 10L 34 24.3L 34 103.1C 33.999998 114.642743 24.64275 123.999991 13.1 123.999991L 13 124L 10 124"></path></g></g></g><g id="g-root-cu_dg2eku1f3py4j-stroke" data-item-order="0" transform="translate(165, 393)"><g id="cu_dg2eku1f3py4j-stroke" fill="none" stroke-linecap="round" stroke-linejoin="round" stroke-miterlimit="4" stroke="#b7b7b7" stroke-width="2" stroke-dasharray="5.0, 7.0"><g><path d="M 28 10L 28 17.5L 28 58C 27.999999 64.627415 22.627416 69.999998 16 69.999998L 15.9 70L 10 70"></path></g></g></g><g id="g-root-cu_qriwy61f3pwjk-stroke" data-item-order="0" transform="translate(165, 393)"><g id="cu_qriwy61f3pwjk-stroke" fill="none" stroke-linecap="round" stroke-linejoin="round" stroke-miterlimit="4" stroke="#b7b7b7" stroke-width="2" stroke-dasharray="5.0, 7.0"><g><path d="M 28 10L 28 22L 28 34L 19 34L 10 34"></path></g></g></g><g id="g-root-tx_doublebo_1ur5e8e1f3hij0-stroke" data-item-order="0" transform="translate(507, 255)"></g><g id="g-root-tx_unreacti_hwidse1f3hjib-stroke" data-item-order="0" transform="translate(51, 291)"></g><g id="g-root-tx_hydroxyl_92qssu1f3hjbc-stroke" data-item-order="0" transform="translate(15, 405)"></g><g id="g-root-cu_1cw4j7y1f3pwr0-stroke" data-item-order="0" transform="translate(411, 352)"><g id="cu_1cw4j7y1f3pwr0-stroke" fill="none" stroke-linecap="round" stroke-linejoin="round" stroke-miterlimit="4" stroke="#b7b7b7" stroke-width="2" stroke-dasharray="5.0, 7.0"><g><path d="M 10 10L 13 10L 13.1 10C 16.47715 10.00393 20.199416 10.613028 24.1 11.8C 26.434787 12.503612 29.936878 14.343094 34 16.999999C 38.063122 19.656905 41.565214 21.496387 43.900001 22.199999C 47.800584 23.386973 51.52285 23.996071 54.900001 24.000001L 55 24L 58 24"></path></g></g></g><g id="g-root-cu_18gb13i1f3pxjb-stroke" data-item-order="0" transform="translate(207, 352)"><g id="cu_18gb13i1f3pxjb-stroke" fill="none" stroke-linecap="round" stroke-linejoin="round" stroke-miterlimit="4" stroke="#b7b7b7" stroke-width="2" stroke-dasharray="5.0, 7.0"><g><path d="M 58 10L 55 10L 54.9 10C 51.522851 10.003929 47.800585 10.613027 43.900001 11.799999C 41.565213 12.503613 38.063122 14.343095 34 17.000001C 29.936878 19.656907 26.434787 21.496389 24.1 22.200001C 20.199417 23.386972 16.477151 23.99607 13.100001 24L 13 24L 10 24"></path></g></g></g><g id="g-root-cu_mcyczy1f3pzik-stroke" data-item-order="0" transform="translate(297, 693)"><g id="cu_mcyczy1f3pzik-stroke" fill="none" stroke-linecap="round" stroke-linejoin="round" stroke-miterlimit="4" stroke="#b7b7b7" stroke-width="2" stroke-dasharray="5.0, 7.0"><g><path d="M 10 10L 10 17.5L 10 58C 10.000002 64.627417 15.372585 70 22.000002 69.999999L 22.1 70L 28 70"></path></g></g></g><g id="g-root-tx_morereac_1hfovv21f3hk3x-stroke" data-item-order="0" transform="translate(507, 291)"></g><g id="g-root-tx_carbonyl_1d3m89a1f3hiwy-stroke" data-item-order="0" transform="translate(321, 705)"></g><g id="g-root-cu_v8ld8u1f3pypt-stroke" data-item-order="0" transform="translate(297, 693)"><g id="cu_v8ld8u1f3pypt-stroke" fill="none" stroke-linecap="round" stroke-linejoin="round" stroke-miterlimit="4" stroke="#b7b7b7" stroke-width="2" stroke-dasharray="5.0, 7.0"><g><path d="M 10 10L 10 22L 10 34L 19 34L 28 34"></path></g></g></g><g id="g-root-tx_alcohols_1cxzyha1f3lqtp-stroke" data-item-order="1000000000" transform="translate(75, 354)"></g><g id="g-root-add_mbpetq1f3lqtq-stroke" data-item-order="1000000000" transform="translate(165, 351)"><g id="add_mbpetq1f3lqtq-stroke" fill="none" stroke-linecap="round" stroke-linejoin="round" stroke-miterlimit="4" stroke="#4f91fc" stroke-width="2"><g><path d="M 25 11.25L 25 38.75M 38.75 25L 11.25 25"></path></g></g></g><g id="g-root-tx_function_1uo25vy1etkrgg-stroke" data-item-order="1000000000" transform="translate(279, 330)"></g><g id="g-root-bohr_1uqk5e61etkq2p-stroke" data-item-order="1000000000" transform="translate(471, 351)"><g id="bohr_1uqk5e61etkq2p-stroke" fill="none" stroke-linecap="round" stroke-linejoin="round" stroke-miterlimit="4" stroke="#ffe711" stroke-width="2"><g><path d="M 11.875 10.625L 38.125 10.625C 38.125 10.625 39.375 10.625 39.375 11.875L 39.375 38.125C 39.375 38.125 39.375 39.375 38.125 39.375L 11.875 39.375C 11.875 39.375 10.625 39.375 10.625 38.125L 10.625 11.875C 10.625 11.875 10.625 10.625 11.875 10.625M 18.75 33.75L 31.25 33.75M 17.8125 19.376249L 17.8125 24.532501L 20.860001 24.532501C 22.283859 24.532501 23.438126 23.378235 23.438126 21.954376C 23.438126 20.530516 22.283859 19.376251 20.860001 19.376251L 17.8125 19.376249ZM 17.8125 24.532501L 17.8125 30.626249L 21.328751 30.626249C 23.011492 30.626249 24.375626 29.262119 24.375626 27.579376C 24.375626 25.896633 23.011492 24.532501 21.328751 24.532501L 17.8125 24.532501ZM 27.110001 30.625L 27.110001 26.40625C 27.110001 25.241249 28.053749 24.296249 29.21875 24.296249L 29.21875 24.296249C 30.383749 24.296249 31.328751 25.241249 31.328751 26.40625L 31.328751 30.625M 27.110001 26.40625L 27.110001 19.375"></path></g></g></g><g id="g-root-tx_alkynes_qrk5721etkphk-stroke" data-item-order="1000000000" transform="translate(507, 354)"></g><g id="g-root-1_v6r32m1etkp3d-stroke" data-item-order="1000000000" transform="translate(309, 276)"><g id="1_v6r32m1etkp3d-stroke" fill="none" stroke-linecap="round" stroke-linejoin="round" stroke-miterlimit="4" stroke="#f4f4f4" stroke-width="2"><g><path d="M 10 10M 22 29.5L 34 38.5L 46 29.5M 34 38.5L 34 48.5M 22 29.5C 21.281525 25.867592 22.201668 22.103209 24.514778 19.211823C 26.827887 16.320435 30.298473 14.596407 34 14.5C 37.699211 14.602617 41.165733 16.328289 43.477501 19.217999C 45.789268 22.107708 46.711903 25.868486 45.999996 29.499998M 46 29.5C 51.806698 30.538157 56.02597 35.601284 56 41.5C 56 48.127419 50.627419 53.5 44 53.5C 40.026203 53.675251 36.24408 51.784187 34 48.5M 34 48.5C 31.735155 51.7603 27.967146 53.644302 24 53.499996C 17.372583 53.5 12 48.127419 12 41.5C 11.975666 35.601875 16.194176 30.539661 22 29.5"></path></g></g></g><g id="g-root-tx_alkenes_750su1etgjk6-stroke" data-item-order="1000000000" transform="translate(507, 204)"></g><g id="g-root-tx_ethers_1hgxu1a1f3n4lk-stroke" data-item-order="1000000000" transform="translate(163, 504)"></g><g id="g-root-oxyg_qunadq1f3n4ll-stroke" data-item-order="1000000000" transform="translate(241, 501)"><g id="oxyg_qunadq1f3n4ll-stroke" fill="none" stroke-linecap="round" stroke-linejoin="round" stroke-miterlimit="4" stroke="#fb6762" stroke-width="2"><g><path d="M 11.875 10.625L 38.125 10.625C 38.125 10.625 39.375 10.625 39.375 11.875L 39.375 38.125C 39.375 38.125 39.375 39.375 38.125 39.375L 11.875 39.375C 11.875 39.375 10.625 39.375 10.625 38.125L 10.625 11.875C 10.625 11.875 10.625 10.625 11.875 10.625M 18.75 33.125L 31.25 33.125M 22.1875 22.188751L 22.1875 27.813751C 22.1875 29.36705 23.446699 30.626249 25 30.626249C 26.553301 30.626249 27.8125 29.36705 27.8125 27.813751L 27.8125 22.188751C 27.8125 20.635448 26.553301 19.376249 25 19.376249C 23.446699 19.376249 22.1875 20.635448 22.1875 22.188751Z"></path></g></g></g><g id="g-root-bott_1lxf1hq1etghs7-stroke" data-item-order="1000000000" transform="translate(471, 201)"><g id="bott_1lxf1hq1etghs7-stroke" fill="none" stroke-linecap="round" stroke-linejoin="round" stroke-miterlimit="4" stroke="#cb68f9" stroke-width="2"><g><path d="M 28.737499 22.16375C 27.515053 19.914442 26.874779 17.395033 26.875 14.835L 26.875 11.875C 26.875 11.184644 26.315357 10.625 25.625 10.625L 24.375 10.625C 23.684643 10.625 23.125 11.184644 23.125 11.875L 23.125 14.835C 23.125221 17.395033 22.484947 19.914442 21.262501 22.16375C 20.066143 24.27286 19.417223 26.648079 19.375 29.072502L 19.375 36.875C 19.379118 38.254005 20.495998 39.370884 21.875 39.375L 28.125 39.375C 29.504002 39.370884 30.620882 38.254005 30.625 36.875L 30.625 29.0725C 30.582779 26.648079 29.933859 24.27286 28.737501 22.163752ZM 21.262501 22.16375L 21.95125 23.150002C 22.650581 24.146961 23.790474 24.742256 25.008247 24.746481C 26.226023 24.750706 27.370018 24.163334 28.07625 23.171251L 28.758751 22.21125M 19.375 29.375L 30.625 29.375M 19.375 35.625L 30.625 35.625M 23.125 13.125L 26.875 13.125M 23.75 21.25C 23.75 21.940357 24.309643 22.5 25 22.5C 25.690357 22.5 26.25 21.940357 26.25 21.25C 26.25 20.559643 25.690357 20 25 20C 24.309643 20 23.75 20.559643 23.75 21.25Z"></path></g></g></g><g id="g-root-can_1hit64u1f39340-stroke" data-item-order="1000000000" transform="translate(395, 501)"><g id="can_1hit64u1f39340-stroke" fill="none" stroke-linecap="round" stroke-linejoin="round" stroke-miterlimit="4" stroke="#a6da37" stroke-width="2"><g><path d="M 38.337502 38.125C 38.337502 38.815353 37.777855 39.375 37.087502 39.375L 14.5875 39.375C 13.897144 39.375 13.3375 38.815353 13.3375 38.125L 13.3375 20C 13.3375 19.654821 13.617322 19.375 13.9625 19.375L 20.2125 19.375C 20.966185 19.334204 21.647509 18.913263 22.021252 18.2575L 24.653749 12.9925C 25.027493 12.336739 25.708817 11.915796 26.462502 11.875L 35.837502 11.875C 37.218212 11.875 38.337502 12.994288 38.337502 14.375ZM 28.3375 14.375C 27.583817 14.415796 26.902493 14.836739 26.528751 15.4925L 25.77125 17.0075C 25.473751 17.679676 25.601223 18.464111 26.096251 19.0075L 26.4625 19.373751L 34.587502 19.373751C 35.277855 19.373751 35.837502 18.814106 35.837502 18.123751L 35.837502 15.62375C 35.837502 14.933394 35.277855 14.37375 34.587502 14.37375ZM 19.715 23.875L 32.087502 36.25M 32.087502 23.875L 19.715 36.25M 20.76375 19.278749L 14.95125 11.13375C 14.707996 10.83252 14.349012 10.647809 13.9625 10.625L 12.0875 10.625C 11.942775 10.607425 11.800643 10.673649 11.721004 10.795763C 11.641364 10.917877 11.638066 11.074645 11.7125 11.2L 15.2125 19.375"></path></g></g></g><g id="g-root-tx_aldehyde_1lymo9a1f392br-stroke" data-item-order="1000000000" transform="translate(431, 504)"></g><g id="g-root-hydr_zk1jri1f3kbgj-stroke" data-item-order="1000000000" transform="translate(165, 201)"><g id="hydr_zk1jri1f3kbgj-stroke" fill="none" stroke-linecap="round" stroke-linejoin="round" stroke-miterlimit="4" stroke="#ffe711" stroke-width="2"><g><path d="M 11.875 10.625L 38.125 10.625C 38.125 10.625 39.375 10.625 39.375 11.875L 39.375 38.125C 39.375 38.125 39.375 39.375 38.125 39.375L 11.875 39.375C 11.875 39.375 10.625 39.375 10.625 38.125L 10.625 11.875C 10.625 11.875 10.625 10.625 11.875 10.625M 18.75 33.75L 31.25 33.75M 22.1875 30.625L 22.1875 19.375M 27.8125 19.375L 27.8125 30.625M 22.1875 24.53125L 27.8125 24.53125"></path></g></g></g><g id="g-root-tx_alkanes_13zv1vy1f3kaoa-stroke" data-item-order="1000000000" transform="translate(75, 204)"></g><g id="g-root-tx_carboxyl_hydpvy1f3iygw-stroke" data-item-order="1000000000" transform="translate(431, 54)"></g><g id="g-root-acor_1qckr4e1f3rcwb-stroke" data-item-order="1000000000" transform="translate(285, 651)"><g id="acor_1qckr4e1f3rcwb-stroke" fill="none" stroke-linecap="round" stroke-linejoin="round" stroke-miterlimit="4" stroke="#f79438" stroke-width="2"><g><path d="M 33.4375 26.875C 33.610088 26.875 33.75 27.014912 33.75 27.1875C 33.75 27.360088 33.610088 27.5 33.4375 27.5C 33.264912 27.5 33.125 27.360088 33.125 27.1875C 33.125 27.014912 33.264912 26.875 33.4375 26.875M 35.9375 24.375C 36.110088 24.375 36.25 24.514912 36.25 24.6875C 36.25 24.860088 36.110088 25 35.9375 25C 35.764912 25 35.625 24.860088 35.625 24.6875C 35.625 24.514912 35.764912 24.375 35.9375 24.375M 32.1875 23.125C 32.360088 23.125 32.5 23.264912 32.5 23.4375C 32.5 23.610088 32.360088 23.75 32.1875 23.75C 32.014912 23.75 31.875 23.610088 31.875 23.4375C 31.875 23.264912 32.014912 23.125 32.1875 23.125M 12.025 37.184998C 12.162324 37.549782 12.450216 37.837673 12.815 37.974998C 22.0425 41.4375 28.123749 38.108749 34.206249 32.026249L 17.973751 15.795C 11.8925 21.875 8.56125 27.95875 12.025 37.184998ZM 38.98 13.885C 39.506371 13.357129 39.506371 12.502872 38.98 11.975L 38.025002 11.02C 37.497131 10.493629 36.642872 10.493629 36.115002 11.02L 33.195 13.94C 28.572399 10.247383 21.962372 10.419956 17.53875 14.34875C 17.400648 14.472646 17.319397 14.647757 17.313963 14.83321C 17.308529 15.018663 17.379389 15.198232 17.51 15.33L 34.669998 32.490002C 34.801235 32.621815 34.981209 32.69339 35.167126 32.687706C 35.353046 32.682022 35.528309 32.599586 35.651249 32.459999C 39.580498 28.036877 39.752563 21.426552 36.05875 16.805Z"></path></g></g></g><g id="g-root-tx_esters_4mx7im1f3rbii-stroke" data-item-order="1000000000" transform="translate(321, 654)"></g><g id="g-root-subt_4njolq1f3iww1-stroke" data-item-order="1000000000" transform="translate(395, 51)"><g id="subt_4njolq1f3iww1-stroke" fill="none" stroke-linecap="round" stroke-linejoin="round" stroke-miterlimit="4" stroke="#1ac3fb" stroke-width="2"><g><path d="M 39.375 25L 10.625 25"></path></g></g></g><g id="g-root-coco_18eflu61f3pyis-stroke" data-item-order="1000000000" transform="translate(241, 51)"><g id="coco_18eflu61f3pyis-stroke" fill="none" stroke-linecap="round" stroke-linejoin="round" stroke-miterlimit="4" stroke="#a6da37" stroke-width="2"><g><path d="M 22.612499 18.125L 19.575001 12.91875C 19.227949 12.323425 18.650562 11.89775 17.979231 11.742282C 17.307901 11.586814 16.602169 11.71534 16.028749 12.0975L 12.6125 14.375M 28.36125 18.125L 19.796249 18.125C 19.36175 18.125145 18.958494 18.35091 18.731251 18.721251L 16.45125 22.43C 15.167304 24.518984 14.487554 26.922989 14.4875 29.375002C 14.4875 35.029999 18.51125 38.26125 22.612499 39.375L 28.862499 39.375C 32.963749 38.26125 36.987499 35.029999 36.987499 29.375C 36.988522 27.431007 36.561764 25.510599 35.737499 23.750002M 30.112499 16.25C 30.112499 17.285534 30.951967 18.125 31.987499 18.125C 33.023037 18.125 33.862499 17.285534 33.862499 16.25C 33.862499 15.214466 33.023037 14.375 31.987499 14.375C 30.951967 14.375 30.112499 15.214466 30.112499 16.25ZM 31.987499 18.125L 31.987499 18.557501C 31.986761 19.611748 32.63147 20.558975 33.612503 20.945C 34.163338 21.160374 34.783077 21.106766 35.28875 20.800001C 35.738129 20.414215 35.982513 19.841366 35.950001 19.25C 35.887718 18.196821 35.186913 17.289196 34.18375 16.9625L 33.771252 16.828751L 34.182503 16.9625C 35.18618 17.288685 36.287193 16.966171 36.956249 16.15C 37.329433 15.691858 37.468052 15.086093 37.331249 14.51125C 37.101788 13.965482 36.631466 13.557535 36.05875 13.4075C 35.038086 13.141332 33.958591 13.527786 33.338749 14.38125L 33.088753 14.7325L 33.338749 14.38125C 33.957668 13.530473 33.993362 12.387747 33.428749 11.5C 33.110859 10.999753 32.577988 10.676239 31.987499 10.625C 31.396742 10.676426 30.863564 10.999846 30.544998 11.5C 29.977581 12.386199 30.0093 13.529137 30.625 14.382501L 30.875 14.73375L 30.625 14.3825C 30.004864 13.528704 28.924559 13.142633 27.903749 13.41C 27.331215 13.559065 26.861059 13.96681 26.6325 14.5125C 26.495483 15.087736 26.634106 15.693974 27.0075 16.1525C 27.676458 16.968006 28.776953 17.290018 29.780001 16.963751L 30.192499 16.83L 29.78125 16.963751C 28.782427 17.293629 28.086248 18.199896 28.025 19.25C 27.990282 19.840696 28.232933 20.413813 28.68125 20.800001C 29.18749 21.106421 29.807438 21.160007 30.358751 20.945C 31.339584 20.559427 31.984327 19.612648 31.983749 18.55875ZM 16.45125 22.43C 19.003658 24.99608 23.146698 25.027309 25.737499 22.5C 26.979532 23.713062 28.650154 24.386883 30.38625 24.375C 31.344252 24.375977 32.290314 24.16242 33.154999 23.75"></path></g></g></g><g id="g-root-tx_ketones_9lowe1f3ok5f-stroke" data-item-order="1000000000" transform="translate(151, 54)"></g></g></g></svg>