<svg width="1092" height="546" viewBox="0 0 1092 546" style="fill:none;stroke:none;fill-rule:evenodd;clip-rule:evenodd;stroke-linecap:round;stroke-linejoin:round;stroke-miterlimit:1.5;" version="1.1" xmlns="http://www.w3.org/2000/svg" xmlns:xlink="http://www.w3.org/1999/xlink"><style id="fontImports">@import url("https://fonts.googleapis.com/css2?family=Roboto:wght@400;700&amp;display=block");</style><g id="items" style="isolation: isolate"><g id="blend" style="mix-blend-mode: normal"><g id="g-root-tx_nitriles_18k33u41gr9i4p-fill" data-item-order="0" transform="translate(267, 39)"><g id="tx_nitriles_18k33u41gr9i4p-fill" stroke="none" fill="#f4f4f4"><g><text style="font: 20px Roboto, sans-serif; white-space: pre;" font-size="20px" font-family="Roboto, sans-serif"><tspan x="14.48" y="34" dominant-baseline="ideographic">Nitriles</tspan></text></g></g></g><g id="g-root-tx_isocyani_deuomk1gravwj-fill" data-item-order="0" transform="translate(769, 39)"><g id="tx_isocyani_deuomk1gravwj-fill" stroke="none" fill="#f4f4f4"><g><text style="font: 20px Roboto, sans-serif; white-space: pre;" font-size="20px" font-family="Roboto, sans-serif"><tspan x="17.05" y="34" dominant-baseline="ideographic">Isocyanides</tspan></text></g></g></g><g id="g-root-tx_reactivi_qwjxv01gravwi-fill" data-item-order="0" transform="translate(937, 343)"><g id="tx_reactivi_qwjxv01gravwi-fill" stroke="none" fill="#f4f4f4"><g><text style="font: 20px Roboto, sans-serif; white-space: pre;" font-size="20px" font-family="Roboto, sans-serif"><tspan x="22.32" y="34" dominant-baseline="ideographic">Reactivity: </tspan><tspan x="36.9" y="58" dominant-baseline="ideographic">Unique </tspan><tspan x="26.49" y="82" dominant-baseline="ideographic">reactions </tspan><tspan x="40.02" y="106" dominant-baseline="ideographic">due to </tspan><tspan x="14.16" y="130" dominant-baseline="ideographic">carbene-like </tspan><tspan x="27.91" y="154" dominant-baseline="ideographic">structure</tspan></text></g></g></g><g id="g-root-tx_reactivi_1hhljcc1gratqh-fill" data-item-order="0" transform="translate(797, 343)"><g id="tx_reactivi_1hhljcc1gratqh-fill" stroke="none" fill="#f4f4f4"><g><text style="font: 20px Roboto, sans-serif; white-space: pre;" font-size="20px" font-family="Roboto, sans-serif"><tspan x="16.2" y="34" dominant-baseline="ideographic">Reactivity: </tspan><tspan x="38.02" y="58" dominant-baseline="ideographic">Toxic</tspan></text></g></g></g><g id="g-root-tx_definiti_18lyj3g1gr9h4z-fill" data-item-order="0" transform="translate(15, 131)"><g id="tx_definiti_18lyj3g1gr9h4z-fill" stroke="none" fill="#f4f4f4"><g><text style="font: 20px Roboto, sans-serif; white-space: pre;" font-size="20px" font-family="Roboto, sans-serif"><tspan x="25.31" y="34" dominant-baseline="ideographic">Definition: </tspan><tspan x="13.97" y="58" dominant-baseline="ideographic">Cyano group</tspan></text></g></g></g><g id="g-root-tx_examplec_1hfq4301grauq7-fill" data-item-order="0" transform="translate(775, 131)"><g id="tx_examplec_1hfq4301grauq7-fill" stroke="none" fill="#f4f4f4"><g><text style="font: 20px Roboto, sans-serif; white-space: pre;" font-size="20px" font-family="Roboto, sans-serif"><tspan x="23.4" y="34" dominant-baseline="ideographic">Example: </tspan><tspan x="33.73" y="58" dominant-baseline="ideographic">CH₃NC </tspan><tspan x="30.59" y="82" dominant-baseline="ideographic">(methyl </tspan><tspan x="13.02" y="106" dominant-baseline="ideographic">isocyanide)</tspan></text></g></g></g><g id="g-root-tx_examplec_1qehhrg1gr9gxx-fill" data-item-order="0" transform="translate(167, 131)"><g id="tx_examplec_1qehhrg1gr9gxx-fill" stroke="none" fill="#f4f4f4"><g><text style="font: 20px Roboto, sans-serif; white-space: pre;" font-size="20px" font-family="Roboto, sans-serif"><tspan x="29.39" y="34" dominant-baseline="ideographic">Example: </tspan><tspan x="39.72" y="58" dominant-baseline="ideographic">CH₃CN </tspan><tspan x="13.52" y="82" dominant-baseline="ideographic">(acetonitrile)</tspan></text></g></g></g><g id="g-root-tx_definiti_v7dnak1gravph-fill" data-item-order="0" transform="translate(635, 131)"><g id="tx_definiti_v7dnak1gravph-fill" stroke="none" fill="#f4f4f4"><g><text style="font: 20px Roboto, sans-serif; white-space: pre;" font-size="20px" font-family="Roboto, sans-serif"><tspan x="16.84" y="34" dominant-baseline="ideographic">Definition: </tspan><tspan x="23.2" y="58" dominant-baseline="ideographic">Isonitrile </tspan><tspan x="35.8" y="82" dominant-baseline="ideographic">group</tspan></text></g></g></g><g id="g-root-tx_reactivi_1lqjtik1grauj3-fill" data-item-order="0" transform="translate(319, 131)"><g id="tx_reactivi_1lqjtik1grauj3-fill" stroke="none" fill="#f4f4f4"><g><text style="font: 20px Roboto, sans-serif; white-space: pre;" font-size="20px" font-family="Roboto, sans-serif"><tspan x="28.86" y="34" dominant-baseline="ideographic">Reactivity: </tspan><tspan x="13.63" y="58" dominant-baseline="ideographic">Hydrolyzed to </tspan><tspan x="29.33" y="82" dominant-baseline="ideographic">carboxylic </tspan><tspan x="50.47" y="106" dominant-baseline="ideographic">acids</tspan></text></g></g></g><g id="g-root-tx_reactivi_18gyqek1grav49-fill" data-item-order="0" transform="translate(483, 131)"><g id="tx_reactivi_18gyqek1grav49-fill" stroke="none" fill="#f4f4f4"><g><text style="font: 20px Roboto, sans-serif; white-space: pre;" font-size="20px" font-family="Roboto, sans-serif"><tspan x="22.02" y="34" dominant-baseline="ideographic">Reactivity: </tspan><tspan x="17.39" y="58" dominant-baseline="ideographic">Reduced to </tspan><tspan x="34.92" y="82" dominant-baseline="ideographic">amines</tspan></text></g></g></g><g id="g-root-cu_4j7odo1grf1n2-fill" data-item-order="2" transform="translate(75, 69)"></g><g id="g-root-cu_1uooq3w1grf30h-fill" data-item-order="2" transform="translate(227, 69)"></g><g id="g-root-cu_1uooq3w1grf30j-fill" data-item-order="2" transform="translate(303, 69)"></g><g id="g-root-cu_1uooq3w1grf30l-fill" data-item-order="2" transform="translate(303, 69)"></g><g id="g-root-cu_1lt1pv01grf3tb-fill" data-item-order="2" transform="translate(689, 69)"></g><g id="g-root-cu_1hduoto1grf1fu-fill" data-item-order="2" transform="translate(829, 69)"></g><g id="g-root-cu_1hduoto1grf1fw-fill" data-item-order="2" transform="translate(829, 69)"></g><g id="g-root-cu_1cy16p81grf286-fill" data-item-order="2" transform="translate(829, 69)"></g><g id="g-root-tx_nitriles_18k33u41gr9i4p-stroke" data-item-order="0" transform="translate(267, 39)"></g><g id="g-root-tx_isocyani_deuomk1gravwj-stroke" data-item-order="0" transform="translate(769, 39)"></g><g id="g-root-tx_reactivi_qwjxv01gravwi-stroke" data-item-order="0" transform="translate(937, 343)"></g><g id="g-root-tx_reactivi_1hhljcc1gratqh-stroke" data-item-order="0" transform="translate(797, 343)"></g><g id="g-root-tx_definiti_18lyj3g1gr9h4z-stroke" data-item-order="0" transform="translate(15, 131)"></g><g id="g-root-tx_examplec_1hfq4301grauq7-stroke" data-item-order="0" transform="translate(775, 131)"></g><g id="g-root-tx_examplec_1qehhrg1gr9gxx-stroke" data-item-order="0" transform="translate(167, 131)"></g><g id="g-root-tx_definiti_v7dnak1gravph-stroke" data-item-order="0" transform="translate(635, 131)"></g><g id="g-root-tx_reactivi_1lqjtik1grauj3-stroke" data-item-order="0" transform="translate(319, 131)"></g><g id="g-root-tx_reactivi_18gyqek1grav49-stroke" data-item-order="0" transform="translate(483, 131)"></g><g id="g-root-cu_4j7odo1grf1n2-stroke" data-item-order="2" transform="translate(75, 69)"><g id="cu_4j7odo1grf1n2-stroke" fill="none" stroke-linecap="round" stroke-linejoin="round" stroke-miterlimit="4" stroke="#f4f4f4" stroke-width="2"><g><path d="M 238 10L 238 24L 238 38L 124 38L 10 38L 10 52L 10 64"></path><path d="M 3.5 58L 10 64.5L 16.5 58" stroke-dasharray="none"></path></g></g></g><g id="g-root-cu_1uooq3w1grf30h-stroke" data-item-order="2" transform="translate(227, 69)"><g id="cu_1uooq3w1grf30h-stroke" fill="none" stroke-linecap="round" stroke-linejoin="round" stroke-miterlimit="4" stroke="#f4f4f4" stroke-width="2"><g><path d="M 86 10L 86 24L 86 38L 48 38L 10 38L 10 52L 10 64"></path><path d="M 3.5 58L 10 64.5L 16.5 58" stroke-dasharray="none"></path></g></g></g><g id="g-root-cu_1uooq3w1grf30j-stroke" data-item-order="2" transform="translate(303, 69)"><g id="cu_1uooq3w1grf30j-stroke" fill="none" stroke-linecap="round" stroke-linejoin="round" stroke-miterlimit="4" stroke="#f4f4f4" stroke-width="2"><g><path d="M 10 10L 10 24L 10 38L 51 38L 92 38L 92 52L 92 64"></path><path d="M 85.5 58L 92 64.5L 98.5 58" stroke-dasharray="none"></path></g></g></g><g id="g-root-cu_1uooq3w1grf30l-stroke" data-item-order="2" transform="translate(303, 69)"><g id="cu_1uooq3w1grf30l-stroke" fill="none" stroke-linecap="round" stroke-linejoin="round" stroke-miterlimit="4" stroke="#f4f4f4" stroke-width="2"><g><path d="M 10 10L 10 24L 10 38L 130 38L 250 38L 250 52L 250 64"></path><path d="M 243.5 58L 250 64.5L 256.5 58" stroke-dasharray="none"></path></g></g></g><g id="g-root-cu_1lt1pv01grf3tb-stroke" data-item-order="2" transform="translate(689, 69)"><g id="cu_1lt1pv01grf3tb-stroke" fill="none" stroke-linecap="round" stroke-linejoin="round" stroke-miterlimit="4" stroke="#f4f4f4" stroke-width="2"><g><path d="M 150 10L 150 24L 150 38L 80 38L 10 38L 10 52L 10 64"></path><path d="M 3.5 58L 10 64.5L 16.5 58" stroke-dasharray="none"></path></g></g></g><g id="g-root-cu_1hduoto1grf1fu-stroke" data-item-order="2" transform="translate(829, 69)"><g id="cu_1hduoto1grf1fu-stroke" fill="none" stroke-linecap="round" stroke-linejoin="round" stroke-miterlimit="4" stroke="#f4f4f4" stroke-width="2"><g><path d="M 10 10L 10 38L 10 64"></path><path d="M 3.5 58L 10 64.5L 16.5 58" stroke-dasharray="none"></path></g></g></g><g id="g-root-cu_1hduoto1grf1fw-stroke" data-item-order="2" transform="translate(829, 69)"><g id="cu_1hduoto1grf1fw-stroke" fill="none" stroke-linecap="round" stroke-linejoin="round" stroke-miterlimit="4" stroke="#f4f4f4" stroke-width="2"><g><path d="M 10 10L 10 24L 10 38L 56 38L 102 38L 102 144L 102 250L 67 250L 32 250L 32 264L 32 276"></path><path d="M 25.5 270L 32 276.5L 38.5 270" stroke-dasharray="none"></path></g></g></g><g id="g-root-cu_1cy16p81grf286-stroke" data-item-order="2" transform="translate(829, 69)"><g id="cu_1cy16p81grf286-stroke" fill="none" stroke-linecap="round" stroke-linejoin="round" stroke-miterlimit="4" stroke="#f4f4f4" stroke-width="2"><g><path d="M 10 10L 10 24L 10 38L 56 38L 102 38L 102 144L 102 250L 140 250L 178 250L 178 264L 178 276"></path><path d="M 171.5 270L 178 276.5L 184.5 270" stroke-dasharray="none"></path></g></g></g></g></g></svg>
