<?xml version="1.0" encoding="utf-8" standalone="yes"?>
<!DOCTYPE svg PUBLIC "-//W3C//DTD SVG 1.1//EN" "http://www.w3.org/Graphics/SVG/1.1/DTD/svg11.dtd">
<svg width="890" height="338" viewBox="0 0 890 338" style="fill:none;stroke:none;fill-rule:evenodd;clip-rule:evenodd;stroke-linecap:round;stroke-linejoin:round;stroke-miterlimit:1.5;" version="1.1" xmlns="http://www.w3.org/2000/svg" xmlns:xlink="http://www.w3.org/1999/xlink"><style id="fontImports">@import url("https://fonts.googleapis.com/css2?family=Roboto:wght@400;700&amp;display=block");</style><g id="items" style="isolation: isolate"><g id="blend" style="mix-blend-mode: normal"><g id="g-root-ro_40dvg1g7d3ib-fill" data-item-order="-30600" transform="translate(339, 83.99996948242188)"><g id="ro_40dvg1g7d3ib-fill" stroke="none" fill="#545454"><g><path d="M 34 10L 190 10C 190 10 214 10 214 34L 214 136C 214 136 214 160 190 160L 34 160C 34 160 10 160 10 136L 10 34C 10 34 10 10 34 10"></path></g></g></g><g id="g-root-ro_1d30px81g7iozx-fill" data-item-order="-12960" transform="translate(591, 189)"><g id="ro_1d30px81g7iozx-fill" stroke="none" fill="#60436d"><g><path d="M 22 10L 238 10C 238 10 250 10 250 22L 250 52C 250 52 250 64 238 64L 22 64C 22 64 10 64 10 52L 10 22C 10 22 10 10 22 10"></path></g></g></g><g id="g-root-ro_94n9z01g7632j-fill" data-item-order="-12312" transform="translate(591, 38.999969482421875)"><g id="ro_94n9z01g7632j-fill" stroke="none" fill="#3e4e69"><g><path d="M 22 10L 226 10C 226 10 238 10 238 22L 238 52C 238 52 238 64 226 64L 22 64C 22 64 10 64 10 52L 10 22C 10 22 10 10 22 10"></path></g></g></g><g id="g-root-ro_dilcu41g7d24n-fill" data-item-order="-9720" transform="translate(111, 189)"><g id="ro_dilcu41g7d24n-fill" stroke="none" fill="#4b533a"><g><path d="M 22 10L 178 10C 178 10 190 10 190 22L 190 52C 190 52 190 64 178 64L 22 64C 22 64 10 64 10 52L 10 22C 10 22 10 10 22 10"></path></g></g></g><g id="g-root-ro_8wj3uk1g7bn5s-fill" data-item-order="-7776" transform="translate(147, 38.999969482421875)"><g id="ro_8wj3uk1g7bn5s-fill" stroke="none" fill="#68403f"><g><path d="M 22 10L 142 10C 142 10 154 10 154 22L 154 52C 154 52 154 64 142 64L 22 64C 22 64 10 64 10 52L 10 22C 10 22 10 10 22 10"></path></g></g></g><g id="g-root-cu_18lycsc1g7d4ap-fill" data-item-order="0" transform="translate(615, 243)"></g><g id="g-root-cu_vb4bi41g7d2pw-fill" data-item-order="0" transform="translate(249, 243)"></g><g id="g-root-tx_benzimid_m7d54s1g77i87-fill" data-item-order="0" transform="translate(15, 255)"><g id="tx_benzimid_m7d54s1g77i87-fill" stroke="none" fill="#f4f4f4"><g><text style="font: 20px Roboto, sans-serif; white-space: pre;" font-size="20px" font-family="Roboto, sans-serif"><tspan x="15.82" y="34" dominant-baseline="ideographic">Benzimidazole Structure</tspan></text></g></g></g><g id="g-root-cu_92rupo1g7d2ww-fill" data-item-order="0" transform="translate(291, 65.99996948242188)"></g><g id="g-root-tx_indolest_zitni41g77gna-fill" data-item-order="0" transform="translate(639, 255)"><g id="tx_indolest_zitni41g77gna-fill" stroke="none" fill="#f4f4f4"><g><text style="font: 20px Roboto, sans-serif; white-space: pre;" font-size="20px" font-family="Roboto, sans-serif"><tspan x="17.52" y="34" dominant-baseline="ideographic">Indole Structure</tspan></text></g></g></g><g id="g-root-cu_1qd8da41g7d1xd-fill" data-item-order="0" transform="translate(543, 65.99996948242188)"></g><g id="g-root-cu_74ugs1g7d3pn-fill" data-item-order="0" transform="translate(543, 184)"></g><g id="g-root-cu_1qd8da41g7d1xg-fill" data-item-order="0" transform="translate(249, 92.99996948242188)"></g><g id="g-root-cu_1d1ruws1g7d3if-fill" data-item-order="0" transform="translate(249, 92.99996948242188)"></g><g id="g-root-tx_thiazoli_4pg8xo1g760p0-fill" data-item-order="0" transform="translate(87, 104.99996948242188)"><g id="tx_thiazoli_4pg8xo1g760p0-fill" stroke="none" fill="#f4f4f4"><g><text style="font: 20px Roboto, sans-serif; white-space: pre;" font-size="20px" font-family="Roboto, sans-serif"><tspan x="12.15" y="34" dominant-baseline="ideographic">Thiazolidine Ring</tspan></text></g></g></g><g id="g-root-cu_1usfebg1g7d4au-fill" data-item-order="0" transform="translate(291, 184)"></g><g id="g-root-cu_1qehbgc1g7d43r-fill" data-item-order="0" transform="translate(615, 92.99996948242188)"></g><g id="g-root-cu_1d3na641g7d2iy-fill" data-item-order="0" transform="translate(615, 92.99996948242188)"></g><g id="g-root-tx_drugexam_4gplq41g77hfl-fill" data-item-order="0" transform="translate(639, 141)"><g id="tx_drugexam_4gplq41g77hfl-fill" stroke="none" fill="#f4f4f4"><g><text style="font: 20px Roboto, sans-serif; white-space: pre;" font-size="20px" font-family="Roboto, sans-serif"><tspan x="15.13" y="34" dominant-baseline="ideographic">Drug Examples</tspan></text></g></g></g><g id="g-root-tx_betalact_1qf3sjg1g7622t-fill" data-item-order="0" transform="translate(75, 141)"><g id="tx_betalact_1qf3sjg1g7622t-fill" stroke="none" fill="#f4f4f4"><g><text style="font: 20px Roboto, sans-serif; white-space: pre;" font-size="20px" font-family="Roboto, sans-serif"><tspan x="15.3" y="34" dominant-baseline="ideographic">Beta-Lactam Ring</tspan></text></g></g></g><g id="g-root-tx_targetin_8wj3uk1g77gnc-fill" data-item-order="0" transform="translate(639, 104.99996948242188)"><g id="tx_targetin_8wj3uk1g77gnc-fill" stroke="none" fill="#f4f4f4"><g><text style="font: 20px Roboto, sans-serif; white-space: pre;" font-size="20px" font-family="Roboto, sans-serif"><tspan x="16.41" y="34" dominant-baseline="ideographic">Targeting Mechanisms</tspan></text></g></g></g><g id="g-root-pill_dfgw8s1g7d1xe-fill" data-item-order="1000000000" transform="translate(417, 107.99996948242188)"></g><g id="g-root-tx_pharmace_141rfwc1g7d1xd-fill" data-item-order="1000000000" transform="translate(363, 162)"><g id="tx_pharmace_141rfwc1g7d1xd-fill" stroke="none" fill="#f4f4f4"><g><text style="font: 20px Roboto, sans-serif; white-space: pre;" font-size="20px" font-family="Roboto, sans-serif"><tspan x="16.91" y="34" dominant-baseline="ideographic">Pharmaceutical </tspan><tspan x="32.47" y="58" dominant-baseline="ideographic">Compounds</tspan></text></g></g></g><g id="g-root-tx_anticanc_18mktvg1g7629t-fill" data-item-order="1000000000" transform="translate(639, 53.999969482421875)"><g id="tx_anticanc_18mktvg1g7629t-fill" stroke="none" fill="#4f91fc"><g><text style="font: 20px Roboto, sans-serif; white-space: pre;" font-size="20px" font-family="Roboto, sans-serif"><tspan x="17.46" y="34" dominant-baseline="ideographic">Anticancer Drugs</tspan></text></g></g></g><g id="g-root-tx_omeprazo_v98w8s1g7d2x9-fill" data-item-order="1000000000" transform="translate(123, 204)"><g id="tx_omeprazo_v98w8s1g7d2x9-fill" stroke="none" fill="#a6da37"><g><text style="font: 20px Roboto, sans-serif; white-space: pre;" font-size="20px" font-family="Roboto, sans-serif"><tspan x="16.52" y="34" dominant-baseline="ideographic">Omeprazole</tspan></text></g></g></g><g id="g-root-add_1lynq641g7io78-fill" data-item-order="1000000000" transform="translate(603, 201)"></g><g id="g-root-tx_fluoxeti_8dph81g7ipz7-fill" data-item-order="1000000000" transform="translate(639, 204)"><g id="tx_fluoxeti_8dph81g7ipz7-fill" stroke="none" fill="#cb68f9"><g><text style="font: 20px Roboto, sans-serif; white-space: pre;" font-size="20px" font-family="Roboto, sans-serif"><tspan x="14.05" y="34" dominant-baseline="ideographic">Fluoxetine (Prozac)</tspan></text></g></g></g><g id="g-root-1_mg3scc1g761hm-fill" data-item-order="1000000000" transform="translate(603, 50.999969482421875)"></g><g id="g-root-tx_penicill_1hjgsak1g7a9dy-fill" data-item-order="1000000000" transform="translate(159, 53.999969482421875)"><g id="tx_penicill_1hjgsak1g7a9dy-fill" stroke="none" fill="#fb6762"><g><text style="font: 20px Roboto, sans-serif; white-space: pre;" font-size="20px" font-family="Roboto, sans-serif"><tspan x="12.05" y="34" dominant-baseline="ideographic">Penicillin</tspan></text></g></g></g><g id="g-root-2_hrjn0c1g7bor3-fill" data-item-order="1000000000" transform="translate(249, 50.999969482421875)"></g><g id="g-root-band_qtfe4c1g7d3pi-fill" data-item-order="1000000000" transform="translate(249, 201)"></g><g id="g-root-ro_40dvg1g7d3ib-stroke" data-item-order="-30600" transform="translate(339, 83.99996948242188)"><g id="ro_40dvg1g7d3ib-stroke" fill="none" stroke-linecap="round" stroke-linejoin="round" stroke-miterlimit="4" stroke="#f4f4f4" stroke-width="2"><g><path d="M 34 10L 190 10C 190 10 214 10 214 34L 214 136C 214 136 214 160 190 160L 34 160C 34 160 10 160 10 136L 10 34C 10 34 10 10 34 10"></path></g></g></g><g id="g-root-ro_1d30px81g7iozx-stroke" data-item-order="-12960" transform="translate(591, 189)"><g id="ro_1d30px81g7iozx-stroke" fill="none" stroke-linecap="round" stroke-linejoin="round" stroke-miterlimit="4" stroke="#cb68f9" stroke-width="2"><g><path d="M 22 10L 238 10C 238 10 250 10 250 22L 250 52C 250 52 250 64 238 64L 22 64C 22 64 10 64 10 52L 10 22C 10 22 10 10 22 10"></path></g></g></g><g id="g-root-ro_94n9z01g7632j-stroke" data-item-order="-12312" transform="translate(591, 38.999969482421875)"><g id="ro_94n9z01g7632j-stroke" fill="none" stroke-linecap="round" stroke-linejoin="round" stroke-miterlimit="4" stroke="#4f91fc" stroke-width="2"><g><path d="M 22 10L 226 10C 226 10 238 10 238 22L 238 52C 238 52 238 64 226 64L 22 64C 22 64 10 64 10 52L 10 22C 10 22 10 10 22 10"></path></g></g></g><g id="g-root-ro_dilcu41g7d24n-stroke" data-item-order="-9720" transform="translate(111, 189)"><g id="ro_dilcu41g7d24n-stroke" fill="none" stroke-linecap="round" stroke-linejoin="round" stroke-miterlimit="4" stroke="#a6da37" stroke-width="2"><g><path d="M 22 10L 178 10C 178 10 190 10 190 22L 190 52C 190 52 190 64 178 64L 22 64C 22 64 10 64 10 52L 10 22C 10 22 10 10 22 10"></path></g></g></g><g id="g-root-ro_8wj3uk1g7bn5s-stroke" data-item-order="-7776" transform="translate(147, 38.999969482421875)"><g id="ro_8wj3uk1g7bn5s-stroke" fill="none" stroke-linecap="round" stroke-linejoin="round" stroke-miterlimit="4" stroke="#fb6762" stroke-width="2"><g><path d="M 22 10L 142 10C 142 10 154 10 154 22L 154 52C 154 52 154 64 142 64L 22 64C 22 64 10 64 10 52L 10 22C 10 22 10 10 22 10"></path></g></g></g><g id="g-root-cu_18lycsc1g7d4ap-stroke" data-item-order="0" transform="translate(615, 243)"><g id="cu_18lycsc1g7d4ap-stroke" fill="none" stroke-linecap="round" stroke-linejoin="round" stroke-miterlimit="4" stroke="#b7b7b7" stroke-width="2" stroke-dasharray="5.0, 7.0"><g><path d="M 10 10L 10 13L 10 22C 10 28.627416 15.372583 33.999999 22 33.999999L 22.1 34L 28 34"></path></g></g></g><g id="g-root-cu_vb4bi41g7d2pw-stroke" data-item-order="0" transform="translate(249, 243)"><g id="cu_vb4bi41g7d2pw-stroke" fill="none" stroke-linecap="round" stroke-linejoin="round" stroke-miterlimit="4" stroke="#b7b7b7" stroke-width="2" stroke-dasharray="5.0, 7.0"><g><path d="M 28 10L 28 13L 28 22C 27.999999 28.627417 22.627416 34 15.999999 34L 15.9 34L 10 34"></path></g></g></g><g id="g-root-tx_benzimid_m7d54s1g77i87-stroke" data-item-order="0" transform="translate(15, 255)"></g><g id="g-root-cu_92rupo1g7d2ww-stroke" data-item-order="0" transform="translate(291, 65.99996948242188)"><g id="cu_92rupo1g7d2ww-stroke" fill="none" stroke-linecap="round" stroke-linejoin="round" stroke-miterlimit="4" stroke="#b7b7b7" stroke-width="2" stroke-dasharray="5.0, 7.0"><g><path d="M 58 78.000031L 55 78.000031L 54.9 78.000031C 43.357246 78.000025 33.999999 68.642777 33.999998 57.100027L 34 57.000031L 34 30.900031C 34 19.357279 24.642751 10.00003 13.1 10.000031L 13 10.000031L 10 10.000031"></path></g></g></g><g id="g-root-tx_indolest_zitni41g77gna-stroke" data-item-order="0" transform="translate(639, 255)"></g><g id="g-root-cu_1qd8da41g7d1xd-stroke" data-item-order="0" transform="translate(543, 65.99996948242188)"><g id="cu_1qd8da41g7d1xd-stroke" fill="none" stroke-linecap="round" stroke-linejoin="round" stroke-miterlimit="4" stroke="#b7b7b7" stroke-width="2" stroke-dasharray="5.0, 7.0"><g><path d="M 10 78.000031L 13 78.000031L 13.1 78.000031C 24.642751 78.000031 34 68.642782 34 57.100031L 34 57.000031L 34 30.900031C 33.999999 19.357279 43.357246 10.000031 54.899997 10.000031L 55 10.000031L 58 10.000031"></path></g></g></g><g id="g-root-cu_74ugs1g7d3pn-stroke" data-item-order="0" transform="translate(543, 184)"><g id="cu_74ugs1g7d3pn-stroke" fill="none" stroke-linecap="round" stroke-linejoin="round" stroke-miterlimit="4" stroke="#b7b7b7" stroke-width="2" stroke-dasharray="5.0, 7.0"><g><path d="M 10 10L 13 10L 13.1 10C 17.388073 10.00496 22.004736 11.578822 26.300001 14.499999C 28.852796 16.234511 31.644001 20.403194 34.000002 26C 36.356002 31.596807 39.147208 35.76549 41.700003 37.500001C 45.995265 40.421176 50.611928 41.995038 54.900001 41.999998L 55 42L 58 42"></path></g></g></g><g id="g-root-cu_1qd8da41g7d1xg-stroke" data-item-order="0" transform="translate(249, 92.99996948242188)"><g id="cu_1qd8da41g7d1xg-stroke" fill="none" stroke-linecap="round" stroke-linejoin="round" stroke-miterlimit="4" stroke="#b7b7b7" stroke-width="2" stroke-dasharray="5.0, 7.0"><g><path d="M 28 10L 28 22L 28 34L 19 34L 10 34"></path></g></g></g><g id="g-root-cu_1d1ruws1g7d3if-stroke" data-item-order="0" transform="translate(249, 92.99996948242188)"><g id="cu_1d1ruws1g7d3if-stroke" fill="none" stroke-linecap="round" stroke-linejoin="round" stroke-miterlimit="4" stroke="#b7b7b7" stroke-width="2" stroke-dasharray="5.0, 7.0"><g><path d="M 28 10L 28 17.5L 28 58C 28.000001 64.627419 22.627417 70.000002 16 70.000002L 15.9 70L 10 70"></path></g></g></g><g id="g-root-tx_thiazoli_4pg8xo1g760p0-stroke" data-item-order="0" transform="translate(87, 104.99996948242188)"></g><g id="g-root-cu_1usfebg1g7d4au-stroke" data-item-order="0" transform="translate(291, 184)"><g id="cu_1usfebg1g7d4au-stroke" fill="none" stroke-linecap="round" stroke-linejoin="round" stroke-miterlimit="4" stroke="#b7b7b7" stroke-width="2" stroke-dasharray="5.0, 7.0"><g><path d="M 58 10L 55 10L 54.9 10C 50.611929 10.004962 45.995266 11.578824 41.700001 14.500001C 39.147207 16.234511 36.356002 20.403194 34.000002 26.000001C 31.644001 31.596807 28.852796 35.76549 26.300001 37.500001C 22.004737 40.421177 17.388073 41.995039 13.100001 42L 13 42L 10 42"></path></g></g></g><g id="g-root-cu_1qehbgc1g7d43r-stroke" data-item-order="0" transform="translate(615, 92.99996948242188)"><g id="cu_1qehbgc1g7d43r-stroke" fill="none" stroke-linecap="round" stroke-linejoin="round" stroke-miterlimit="4" stroke="#b7b7b7" stroke-width="2" stroke-dasharray="5.0, 7.0"><g><path d="M 10 10.000031L 10 22.000031L 10 34.000031L 19 34.000031L 28 34.000031"></path></g></g></g><g id="g-root-cu_1d3na641g7d2iy-stroke" data-item-order="0" transform="translate(615, 92.99996948242188)"><g id="cu_1d3na641g7d2iy-stroke" fill="none" stroke-linecap="round" stroke-linejoin="round" stroke-miterlimit="4" stroke="#b7b7b7" stroke-width="2" stroke-dasharray="5.0, 7.0"><g><path d="M 10 10.000031L 10 17.500031L 10 58.000031C 10.000002 64.627447 15.372585 70.00003 22.000002 70.00003L 22.1 70.000031L 28 70.000031"></path></g></g></g><g id="g-root-tx_drugexam_4gplq41g77hfl-stroke" data-item-order="0" transform="translate(639, 141)"></g><g id="g-root-tx_betalact_1qf3sjg1g7622t-stroke" data-item-order="0" transform="translate(75, 141)"></g><g id="g-root-tx_targetin_8wj3uk1g77gnc-stroke" data-item-order="0" transform="translate(639, 104.99996948242188)"></g><g id="g-root-pill_dfgw8s1g7d1xe-stroke" data-item-order="1000000000" transform="translate(417, 107.99996948242188)"><g id="pill_dfgw8s1g7d1xe-stroke" fill="none" stroke-linecap="round" stroke-linejoin="round" stroke-miterlimit="4" stroke="#f4f4f4" stroke-width="2"><g><path d="M 11 24C 11 31.179703 16.820299 37 24 37C 31.179703 37 37 31.179703 37 24C 37 16.820299 31.179703 11 24 11C 16.820299 11 11 16.820299 11 24ZM 44.464001 54.363998C 40.949261 57.878742 35.25074 57.878742 31.736002 54.364002C 28.221262 50.849262 28.221262 45.150742 31.736002 41.636002L 41.636002 31.736C 45.150742 28.221262 50.849262 28.221262 54.364002 31.736002C 57.878742 35.25074 57.878742 40.949261 54.364002 44.464001ZM 36.686001 36.686001L 49.414001 49.414001M 44.464001 34.563999C 45.894154 33.133522 48.045311 32.705658 49.914001 33.48M 36.652 21L 11.348 21M 11.348 27L 36.652 27"></path></g></g></g><g id="g-root-tx_pharmace_141rfwc1g7d1xd-stroke" data-item-order="1000000000" transform="translate(363, 162)"></g><g id="g-root-tx_anticanc_18mktvg1g7629t-stroke" data-item-order="1000000000" transform="translate(639, 53.999969482421875)"></g><g id="g-root-tx_omeprazo_v98w8s1g7d2x9-stroke" data-item-order="1000000000" transform="translate(123, 204)"></g><g id="g-root-add_1lynq641g7io78-stroke" data-item-order="1000000000" transform="translate(603, 201)"><g id="add_1lynq641g7io78-stroke" fill="none" stroke-linecap="round" stroke-linejoin="round" stroke-miterlimit="4" stroke="#cb68f9" stroke-width="2"><g><path d="M 25 11.25L 25 38.75M 38.75 25L 11.25 25"></path></g></g></g><g id="g-root-tx_fluoxeti_8dph81g7ipz7-stroke" data-item-order="1000000000" transform="translate(639, 204)"></g><g id="g-root-1_mg3scc1g761hm-stroke" data-item-order="1000000000" transform="translate(603, 50.999969482421875)"><g id="1_mg3scc1g761hm-stroke" fill="none" stroke-linecap="round" stroke-linejoin="round" stroke-miterlimit="4" stroke="#4f91fc" stroke-width="2"><g><path d="M 13.75 17.424999L 13.4125 17.762501C 12.527024 18.641876 12.425665 20.039568 13.175 21.0375L 13.75 21.799999M 17.5 19.299999L 17.5 23.049999M 16.25 14.925C 16.25 15.615356 16.809645 16.174999 17.5 16.174999C 18.190355 16.174999 18.75 15.615356 18.75 14.925C 18.75 14.234644 18.190355 13.675 17.5 13.675C 16.809645 13.675 16.25 14.234644 16.25 14.925M 17.775 10.6875C 17.601974 10.600559 17.398026 10.600559 17.225 10.6875L 14.1 12.25C 13.887417 12.357398 13.752431 12.574341 13.75 12.8125L 13.75 17.424999L 17.5 19.299999L 21.25 17.424999L 21.25 12.8125C 21.24757 12.574341 21.112583 12.357398 20.9 12.25ZM 36.25 17.424999L 36.587502 17.762501C 37.472977 18.641876 37.574333 20.039568 36.824997 21.0375L 36.25 21.799999M 32.5 19.299999L 32.5 23.049999M 31.25 14.925C 31.25 15.615356 31.809645 16.174999 32.5 16.174999C 33.190353 16.174999 33.75 15.615356 33.75 14.925C 33.75 14.234644 33.190353 13.675 32.5 13.675C 31.809645 13.675 31.25 14.234644 31.25 14.925M 32.225002 10.6875C 32.398026 10.600559 32.601974 10.600559 32.774998 10.6875L 35.899998 12.25C 36.112583 12.357398 36.247566 12.574341 36.25 12.8125L 36.25 17.424999L 32.5 19.299999L 28.75 17.424999L 28.75 12.8125C 28.75243 12.574341 28.887417 12.357398 29.1 12.25ZM 13.75 33.75L 13.4125 34.087502C 12.527024 34.966877 12.425665 36.364567 13.175 37.362499L 13.75 38.125M 21.25 33.75L 21.587502 34.087502C 22.472975 34.966877 22.574335 36.364567 21.825001 37.362499L 21.25 38.125M 17.5 35.625L 17.5 39.375M 16.25 31.25C 16.25 31.940355 16.809645 32.5 17.5 32.5C 18.190355 32.5 18.75 31.940355 18.75 31.25C 18.75 30.559645 18.190355 30 17.5 30C 16.809645 30 16.25 30.559645 16.25 31.25M 17.775 27.012499C 17.601974 26.92556 17.398026 26.92556 17.225 27.012501L 14.1 28.574999C 13.887417 28.682398 13.752431 28.899342 13.75 29.137499L 13.75 33.75L 17.5 35.625L 21.25 33.75L 21.25 29.137501C 21.24757 28.899342 21.112583 28.682398 20.9 28.574999ZM 36.25 33.75L 36.587502 34.087502C 37.472977 34.966877 37.574333 36.364567 36.824997 37.362499L 36.25 38.125M 28.75 33.75L 28.412498 34.087502C 27.527025 34.966877 27.425665 36.364567 28.174999 37.362499L 28.75 38.125M 32.5 35.625L 32.5 39.375M 31.25 31.25C 31.25 31.940355 31.809645 32.5 32.5 32.5C 33.190353 32.5 33.75 31.940355 33.75 31.25C 33.75 30.559645 33.190353 30 32.5 30C 31.809645 30 31.25 30.559645 31.25 31.25M 32.225002 27.012499C 32.398026 26.92556 32.601974 26.92556 32.774998 27.012501L 35.899998 28.574999C 36.112583 28.682398 36.247566 28.899342 36.25 29.137499L 36.25 33.75L 32.5 35.625L 28.75 33.75L 28.75 29.137501C 28.75243 28.899342 28.887417 28.682398 29.1 28.574999ZM 23.75 23.125C 23.75 23.815357 24.309643 24.375 25 24.375C 25.690357 24.375 26.25 23.815357 26.25 23.125C 26.25 22.434643 25.690357 21.875 25 21.875C 24.309643 21.875 23.75 22.434643 23.75 23.125M 25.275 18.887501C 25.101974 18.80056 24.898026 18.80056 24.725 18.887501L 21.6 20.449999C 21.387417 20.557398 21.25243 20.774342 21.25 21.012499L 21.25 25.625L 25 27.5L 28.75 25.625L 28.75 21.012501C 28.747568 20.774342 28.612583 20.557398 28.4 20.449999Z"></path></g></g></g><g id="g-root-tx_penicill_1hjgsak1g7a9dy-stroke" data-item-order="1000000000" transform="translate(159, 53.999969482421875)"></g><g id="g-root-2_hrjn0c1g7bor3-stroke" data-item-order="1000000000" transform="translate(249, 50.999969482421875)"><g id="2_hrjn0c1g7bor3-stroke" fill="none" stroke-linecap="round" stroke-linejoin="round" stroke-miterlimit="4" stroke="#fb6762" stroke-width="2"><g><path d="M 10.625 25C 10.625 32.939095 17.060907 39.375 25 39.375C 32.939095 39.375 39.375 32.939095 39.375 25C 39.375 17.060907 32.939095 10.625 25 10.625C 17.060907 10.625 10.625 17.060907 10.625 25M 20.59375 20.34375L 14.9925 14.74375M 34.966248 34.717499L 33.40625 33.15625M 19.41 29.645C 19.41 32.363621 21.61388 34.567501 24.3325 34.567501C 27.051123 34.567501 29.255001 32.363621 29.255001 29.645C 29.255001 26.92638 27.051123 24.722502 24.3325 24.722502C 21.61388 24.722502 19.41 26.92638 19.41 29.645M 29.25375 29.645L 30.895 29.645M 17.77 29.645L 19.41 29.645M 29.25375 29.645L 30.895 29.645M 17.77 29.645L 19.41 29.645M 24.3325 34.56625L 24.3325 36.2075M 24.3325 23.0825L 24.3325 24.7225M 24.3325 34.56625L 24.3325 36.2075M 24.3325 23.0825L 24.3325 24.7225M 27.8125 33.125L 28.9725 34.285M 19.69125 25.00375L 20.852501 26.165001M 27.8125 33.125L 28.9725 34.285M 19.69125 25.00375L 20.852501 26.165001M 20.852501 33.125L 19.69125 34.285M 28.9725 25.00375L 27.8125 26.165001M 20.852501 33.125L 19.69125 34.285M 28.9725 25.00375L 27.8125 26.165001M 22.77 29.645C 22.77 30.507946 23.469555 31.2075 24.3325 31.2075C 25.195444 31.2075 25.895 30.507946 25.895 29.645C 25.895 28.782055 25.195444 28.0825 24.3325 28.0825C 23.469555 28.0825 22.77 28.782055 22.77 29.645M 32.5 23.59375C 32.5 24.456696 33.199554 25.15625 34.0625 25.15625C 34.925446 25.15625 35.625 24.456696 35.625 23.59375C 35.625 22.730806 34.925446 22.03125 34.0625 22.03125C 33.199554 22.03125 32.5 22.730806 32.5 23.59375M 23.4375 17.1875C 23.4375 18.740801 24.696699 20 26.25 20C 27.803301 20 29.0625 18.740801 29.0625 17.1875C 29.0625 15.634199 27.803301 14.375 26.25 14.375C 24.696699 14.375 23.4375 15.634199 23.4375 17.1875"></path></g></g></g><g id="g-root-band_qtfe4c1g7d3pi-stroke" data-item-order="1000000000" transform="translate(249, 201)"><g id="band_qtfe4c1g7d3pi-stroke" fill="none" stroke-linecap="round" stroke-linejoin="round" stroke-miterlimit="4" stroke="#a6da37" stroke-width="2"><g><path d="M 16.707144 26.864285L 26.864285 16.707144M 23.135714 33.292854L 33.292854 23.135714M 26.692856 36.828571C 29.491756 39.627468 34.029671 39.627468 36.828571 36.828571C 39.627468 34.029671 39.627468 29.491756 36.828571 26.692856L 23.307142 13.171429C 20.508244 10.372528 15.970328 10.372528 13.171429 13.171429C 10.372528 15.970328 10.372528 20.508244 13.171429 23.307142Z"></path></g></g></g></g></g></svg>